<svg width="641" height="98" viewBox="0 0 641 98" fill="none" xmlns="http://www.w3.org/2000/svg">
<mask id="path-1-inside-1_533_66" fill="white">
<path d="M494.424 7.75508C496.866 8.01885 498.464 10.2346 497.557 12.6719C496.938 14.3284 495.64 14.455 494.228 14.9087C494.156 14.9298 494.063 14.9298 494.053 15.0354C495.506 15.1831 496.279 15.679 497.021 16.9135C497.773 18.169 498.309 19.5618 499.226 20.7119L499.968 21.366H495.63C493.476 21.366 493.105 16.2065 491.126 16.2065H489.879V19.7517C489.879 19.815 490.023 20.4164 490.064 20.5325C490.157 20.8279 490.312 21.0917 490.425 21.3766H485.045C485.355 20.6802 485.53 19.9733 485.581 19.2136C485.437 16.1643 485.767 12.9462 485.581 9.91806C485.54 9.14782 485.344 8.45145 485.035 7.75508H494.424ZM489.879 9.8864C489.961 11.1103 489.673 12.5031 489.807 13.7059C489.817 13.8009 489.807 13.8853 489.91 13.938H491.796C491.95 13.938 492.455 13.7587 492.61 13.6743C493.805 13.0517 493.898 10.9837 492.785 10.2346C492.651 10.1502 492.043 9.87585 491.919 9.87585H489.869L489.879 9.8864Z"/>
<path d="M513.582 9.49601C517.767 5.33887 526.413 7.32248 526.939 13.8536C527.681 23.1703 514.046 24.4997 511.861 16.618C511.191 14.1913 511.799 11.2897 513.582 9.50656V9.49601ZM517.148 10.4667C515.159 12.5558 515.304 18.7177 518.529 19.4879C523.28 20.6274 524.022 11.6168 520.611 9.8653C519.457 9.27444 518.045 9.52766 517.148 10.4667Z"/>
<path d="M402.763 7.75508L403.031 10.7094C402.702 10.6461 402.444 10.414 402.124 10.2979C401.908 10.2135 401.238 10.0236 401.042 10.0236H396.838V13.115H401.784L401.887 13.2839L402.094 16.1432C401.867 15.985 401.63 15.8478 401.372 15.7423C401.135 15.6473 400.311 15.3835 400.115 15.3835H396.848V19.0342H401.527C401.774 19.0342 402.516 18.781 402.774 18.6544C403.031 18.5278 403.237 18.3695 403.444 18.2112L403.176 21.3766H391.942C392.231 20.8174 392.396 20.1843 392.478 19.5512C392.313 16.312 392.684 12.8618 392.478 9.64373C392.437 8.96846 392.22 8.34594 391.932 7.75508H402.763Z"/>
<path d="M437.546 7.75508C438.762 10.7199 439.926 13.727 441.153 16.6919C441.812 18.2851 442.348 20.0049 443.461 21.3449C443.482 21.5559 443.389 21.3766 443.358 21.3766H437.474C437.814 20.4375 437.721 19.4668 437.329 18.57L431.96 18.5911C431.537 19.4879 431.455 20.427 431.764 21.3766H427.93C428.343 20.944 428.672 20.4481 428.951 19.91C430.084 16.6286 431.64 13.3577 432.702 10.0658C432.97 9.22168 433.114 8.60972 432.64 7.79728C432.743 7.62846 432.784 7.76563 432.805 7.76563H437.546V7.75508ZM436.474 16.3542L434.454 11.1947L432.774 16.3542H436.474Z"/>
<path d="M478.378 7.75508L483.211 19.6989L484.303 21.366H478.316C478.604 20.3742 478.542 19.509 478.171 18.5594L472.72 18.5911C472.4 19.5407 472.204 20.3953 472.596 21.3766H468.762C469.267 20.8279 469.607 20.1843 469.916 19.4985C471.37 16.2698 472.4 12.6613 473.73 9.3694C473.802 8.77853 473.688 8.29318 473.462 7.75508H478.378ZM477.234 16.3542L475.348 11.1947L473.534 16.3542H477.234Z"/>
<path d="M536.09 17.5887L536.966 18.2323C538.141 19.0448 540.615 19.9733 541.862 18.992C542.418 18.5594 542.532 17.7364 542.047 17.1983C541.522 16.618 539.481 16.0694 538.657 15.6684C536.637 14.6872 535.586 13.3788 536.029 10.9626C536.781 6.90043 542.408 6.79492 545.325 8.22988L545.355 11.047L544.253 10.3507C543.212 9.77034 541.274 9.14782 540.213 9.89695C539.347 10.5089 539.656 11.4163 540.46 11.8911C542.521 13.1256 545.943 13.0728 546.283 16.3964C546.881 22.2312 539.801 22.5372 536.07 20.7224V17.5887H536.09Z"/>
<path d="M367.919 17.5887C369.238 18.7071 370.959 19.5618 372.732 19.3719C374.123 19.2241 374.793 17.6626 373.392 16.8501C371.557 15.795 368.094 15.4679 367.796 12.6613C367.198 7.15366 373.392 6.5839 377.133 8.17712V11.0576C375.958 10.1713 374.062 9.23223 372.567 9.64373C371.423 9.96026 371.155 11.1631 372.186 11.8278C373.216 12.4925 374.721 12.7036 375.844 13.3155C379.297 15.1831 378.792 19.9522 375.216 21.2922C373.608 21.8936 371.042 21.7353 369.393 21.2922C368.898 21.155 368.373 20.9756 367.93 20.7224V17.5887H367.919Z"/>
<path d="M390.592 7.75508L390.798 10.7832C390.448 10.6777 390.201 10.4034 389.86 10.2662C389.675 10.1924 389.057 10.0236 388.892 10.0236H386.903V19.6145C386.903 19.7728 387.037 20.2687 387.088 20.4586C387.181 20.7752 387.325 21.06 387.439 21.366H382.09C382.09 21.366 381.925 21.5348 381.987 21.3344C382.172 20.733 382.523 20.1632 382.523 19.4774V10.0236H380.472C380.389 10.0236 379.967 10.1291 379.864 10.1607C379.627 10.2346 378.648 10.8466 378.555 10.7832L378.823 7.75508H390.592Z"/>
<path d="M511.006 7.75508L511.274 10.7832C511.274 10.7832 510.398 10.319 510.264 10.2662C510.12 10.2135 509.604 10.0236 509.491 10.0236H507.306V18.7915C507.409 19.6989 507.42 20.5747 507.914 21.3766H502.401C502.844 20.7013 502.906 19.8678 503.009 19.0764V10.0341H500.886C500.731 10.0341 500.226 10.2029 500.051 10.2768C499.742 10.4034 499.474 10.6039 499.175 10.7621L499.041 10.6883L499.309 7.76563H511.016L511.006 7.75508Z"/>
<path d="M422.479 7.75508C422.169 8.47255 422.025 9.21113 421.943 9.99191V18.8549L422.004 18.9393C422.922 18.9604 423.88 19.0131 424.808 18.9709C425.447 18.9393 426.261 18.9076 426.859 18.6544C427.003 18.5911 427.755 18.1057 427.796 18.1374L427.456 21.366H417.027C417.192 21.0178 417.408 20.5958 417.48 20.216C417.563 19.7939 417.614 19.087 417.635 18.6544C417.748 16.196 417.728 13.21 417.635 10.741C417.614 10.2135 417.583 9.40105 417.48 8.90515C417.398 8.5042 417.192 8.12436 417.027 7.75508H422.479Z"/>
<path d="M410.101 18.9709C411.121 18.9287 412.152 19.0237 413.162 18.9709C413.749 18.9393 414.471 18.8865 415.007 18.6544C415.151 18.5911 415.903 18.1057 415.945 18.1374L415.604 21.366H405.247C405.35 20.944 405.546 20.5852 405.628 20.1421C405.732 19.6251 405.762 18.9182 405.783 18.3801C405.876 16.0166 405.876 13.2417 405.783 10.8782C405.762 10.3084 405.732 9.51711 405.628 8.97901C405.546 8.54641 405.36 8.14547 405.175 7.75508H410.524C410.524 7.75508 410.658 7.58626 410.627 7.78673C410.513 8.39869 410.091 9.01066 410.091 9.78089V18.9604L410.101 18.9709Z"/>
<path d="M533.875 21.3766H528.423C528.67 20.7224 528.876 20.1104 528.938 19.393C529.206 16.5231 528.773 13.305 528.959 10.4034C528.897 9.8864 528.918 9.4327 528.804 8.9157C528.701 8.4831 528.495 8.10326 528.423 7.69177C528.495 7.67067 528.567 7.75508 528.588 7.75508H533.699C533.699 7.75508 533.864 7.61791 533.864 7.78673C533.864 7.83949 533.545 8.47255 533.483 8.70468C533.349 9.23223 533.287 9.92861 533.256 10.4667C533.133 12.9779 533.143 16.1432 533.256 18.6544C533.277 19.1608 533.328 19.7728 533.442 20.2582C533.524 20.6486 533.679 21.0178 533.864 21.366L533.875 21.3766Z"/>
<path d="M465.691 14.5183L458.765 13.4527L461.321 9.16893L457.199 11.7751L456.107 0L455.024 11.7751L450.902 9.16893L453.458 13.4527L446.532 14.5183L453.458 15.7317L450.902 20.0049L455.024 17.3988L456.107 29.0578L457.199 17.3988L461.321 20.0049L458.765 15.7317L465.691 14.5183Z"/>
<path d="M451.255 43.9862C451.255 41.0805 450.157 38.6977 447.953 36.8308C445.749 34.9638 442.561 34.0339 438.387 34.0339C435.361 34.0339 432.988 34.2083 431.266 34.5643L428.679 35.1527C432.201 39.5477 433.965 45.5626 433.965 53.1758C433.965 60.7889 432.584 69.4336 429.827 78.1509L418.164 45.2866C417.434 43.0128 417.073 40.8698 417.073 38.8648C417.073 37.688 417.207 36.7944 417.477 36.1842C417.746 35.574 417.881 34.8621 417.881 34.0339H388.12V34.7967C389.884 36.0171 391.769 38.1529 393.782 41.2185C395.794 44.2841 397.41 47.248 398.635 50.1102L401.796 57.5344L393.583 76.916L382.324 45.2866C381.636 43.0128 381.289 40.8916 381.289 38.9229C381.289 37.7025 381.424 36.7944 381.693 36.1842C381.962 35.574 382.097 34.8621 382.097 34.0339H353.747L358.749 10.8967H335.777L330.767 34.0848H303.862L286.927 52.1587H286.693L294.913 10.8967H271.948L262.212 59.0454L262.183 59.1762C260.327 67.0145 259.859 78.5578 249.542 78.5578C246.183 78.5578 242.931 76.531 242.931 72.7244C242.931 72.7244 242.931 71.5185 243.144 69.8549L255.069 10.8967H232.104L225.847 41.6907C221.9 34.6732 215.403 32.5302 208.451 32.5302C196.533 32.5302 187.265 39.7002 182.375 51.3524C179.371 38.4144 168.827 32.5302 154.025 32.5302C147.045 32.5302 141.044 33.8378 136.02 36.1479C132.456 33.6271 127.666 32.5447 122.507 32.5447C115.202 32.5447 108.25 36.3513 103.843 41.9449H103.609L105.352 34.0993H83.2161C81.8344 18.1974 72.3606 10.8967 58.3378 10.8967H17.2753L0 95.789H25.1689L30.3841 70.1092H47.5531C62.3483 70.1092 73.5652 63.3097 79.241 53.5971L70.6813 95.789H93.6394L100.364 63.099C101.753 56.6772 104.19 51.3306 111.496 51.3306C115.202 51.3306 117.986 53.3501 117.986 57.2729C117.986 58.2754 117.795 59.5612 117.526 60.956H117.533C117.115 63.3678 116.895 65.8668 116.895 68.4311C116.895 89.1348 130.351 97.3363 146.939 97.3363C163.527 97.3363 174.12 88.7352 179.066 78.427C180.526 86.6794 185.479 97.3363 200.558 97.3363C207.509 97.3363 216.621 94.9972 220.575 89.1711L220.611 89.1856C223.728 94.9173 230.318 97.3363 237.836 97.3363C245.354 97.3363 251.285 94.4451 256.125 89.1711L254.786 95.789H277.843L278.084 94.1545L281.35 78.1945L286.559 73.4363L294.679 95.7963H319.614L304.302 58.9365L315.547 48.5919H327.72L322.385 73.9158C321.811 76.778 321.109 79.0299 321.109 82.3571C321.109 86.8755 323.426 91.75 327.373 94.0092C331.78 96.5082 336.996 96.5082 341.864 96.5082C345.846 96.283 349.821 95.7236 353.69 95.0553L357.162 77.9984C355.461 78.1219 353.534 78.318 350.218 78.318C346.618 78.318 345.577 76.6545 345.577 74.6349C345.577 72.6154 346.158 70.4724 346.618 68.4384L350.685 48.5919H362.072C362.306 49.1004 362.547 49.6162 362.753 50.1174L382.118 95.9416H388.035L402.972 60.4838L417.909 95.9416H424.577C426.072 90.6385 428.183 85.7423 430.926 81.2456C433.661 76.7489 436.53 72.4992 439.514 68.4965C441.583 65.627 443.51 62.8447 445.289 60.1351C447.067 57.4255 448.506 54.7449 449.597 52.0934C450.688 49.4418 451.234 46.7467 451.234 43.9935L451.255 43.9862ZM44.3078 49.8922H34.5647L38.1573 32.6537H46.8516C52.1872 32.6537 57.8701 33.7216 57.8701 40.2596C57.8701 45.9694 54.5043 49.8922 44.3007 49.8922H44.3078ZM147.981 80.214C141.483 80.214 139.86 75.2161 139.86 70.2327C139.86 63.8182 143.106 49.6598 152.268 49.6598C158.418 49.6598 160.275 53.8223 160.275 61.1885C160.275 66.5424 157.022 80.2068 147.981 80.2068V80.214ZM209.946 80.214C203.916 80.214 201.486 75.6956 201.486 70.1165C201.486 61.1957 204.497 49.6598 213.667 49.6598C219.583 49.6598 221.9 54.1783 221.9 61.0722C221.9 68.4384 218.889 80.214 209.954 80.214H209.946Z"/>
<path d="M501.451 48.8171C499.134 44.0298 495.846 40.216 491.595 37.3901C487.343 34.5643 482.362 33.1477 476.658 33.1477C470.954 33.1477 465.923 34.5352 461.692 37.3029C457.462 40.0707 454.174 43.8482 451.836 48.6427C449.498 53.4373 448.328 58.8348 448.328 64.8425C448.328 70.8502 449.498 76.2985 451.836 81.0713C454.174 85.844 457.455 89.6215 461.692 92.4111C465.923 95.2006 470.911 96.5954 476.658 96.5954C482.404 96.5954 487.343 95.1788 491.595 92.3529C495.846 89.5271 499.127 85.7205 501.451 80.926C503.768 76.1387 504.93 70.7775 504.93 64.8425C504.93 58.9074 503.768 53.6116 501.451 48.8244V48.8171ZM483.148 82.1827C482.532 86.4833 481.674 89.5779 480.562 91.4594C479.449 93.3409 478.146 94.2853 476.658 94.2853C475.17 94.2853 473.802 93.3409 472.697 91.4594C471.584 89.5779 470.727 86.4833 470.11 82.1827C469.494 77.8822 469.189 72.0997 469.189 64.8352C469.189 57.5708 469.487 51.7955 470.082 47.5168C470.677 43.238 471.535 40.1506 472.668 38.2691C473.795 36.3876 475.127 35.4432 476.665 35.4432C478.202 35.4432 479.52 36.3876 480.626 38.2691C481.738 40.1506 482.589 43.238 483.184 47.5168C483.779 51.7955 484.076 57.5708 484.076 64.8352C484.076 72.0997 483.772 77.8822 483.155 82.1827H483.148Z"/>
<path d="M557.847 59.83V58.8856C556.621 58.5297 555.828 57.7306 555.459 56.4738C555.098 55.2171 554.914 53.7061 554.914 51.9408C554.914 50.9964 554.935 49.9939 554.97 48.9333C555.006 47.8727 555.027 46.7758 555.027 45.6353C555.027 42.2573 553.716 39.3515 551.094 36.9179C548.473 34.4843 545.185 33.2639 541.238 33.2639C535.683 33.2639 531.509 35.2689 528.71 39.2716L526.932 34.0267H526.188C523.162 35.9881 520.023 37.2448 516.763 37.7969C513.511 38.349 509.316 38.6251 504.179 38.6251V39.3878C505.327 40.6446 506.17 42.1193 506.709 43.8046C507.247 45.49 507.58 47.277 507.715 49.1658C507.85 51.0473 507.913 52.8779 507.913 54.6432V79.8508C507.913 81.6161 507.85 83.454 507.715 85.3573C507.58 87.2606 507.247 89.0621 506.709 90.7475C506.17 92.4328 505.327 93.9075 504.179 95.1643V95.927H532.501V95.1643C531.311 93.9075 530.453 92.4328 529.915 90.7475C529.376 89.0621 529.05 87.2606 528.937 85.3573C528.824 83.454 528.767 81.6161 528.767 79.8508V54.4616C528.767 49.8704 529.227 46.0566 530.149 43.0346C531.07 40.0126 532.565 38.5016 534.627 38.5016C535.583 38.5016 536.271 38.8721 536.696 39.6203C537.114 40.3685 537.327 41.3057 537.327 42.4462C537.327 43.4269 537.001 44.7054 536.349 46.2745C535.966 47.139 535.619 48.1197 535.314 49.2166C535.01 50.3136 534.854 51.6502 534.854 53.2193C534.854 56.3649 536.136 58.9437 538.701 60.9633C541.266 62.9828 544.257 63.9998 547.665 63.9998C549.769 63.9998 551.718 63.6656 553.497 62.9973C555.275 62.329 556.721 61.2684 557.833 59.8155L557.847 59.83Z"/>
<path d="M579.92 85.3936C579.806 83.5121 579.75 81.6597 579.75 79.8581V11.8846H579.006C576.632 13.3739 573.67 14.5144 570.127 15.2989C566.584 16.0835 562.843 16.4758 558.896 16.4758H555.162V17.2385C556.31 18.4953 557.153 19.97 557.691 21.6553C558.23 23.3407 558.563 25.1277 558.698 27.0165C558.832 28.898 558.896 30.7286 558.896 32.4939V79.8508C558.896 81.6597 558.832 83.5048 558.698 85.3863C558.563 87.2678 558.23 89.0549 557.691 90.7475C557.153 92.4328 556.31 93.9075 555.162 95.1643V95.927H583.427V95.1643C582.279 93.9075 581.436 92.4328 580.897 90.7475C580.359 89.0621 580.033 87.2751 579.92 85.3863V85.3936Z"/>
<path d="M637.435 85.3936C637.322 83.5121 637.265 81.6597 637.265 79.8581V11.8846H636.521C634.148 13.3739 631.186 14.5144 627.643 15.2989C624.1 16.0835 620.359 16.4758 616.412 16.4758H612.677V17.2385C614.747 19.4397 615.93 22.6941 616.242 27.0165C616.355 28.898 616.412 32.0435 616.412 36.4385C613.925 34.3173 610.764 33.2566 606.931 33.2566C599.54 33.2566 593.652 36.097 589.266 41.7706C584.88 47.4441 582.69 55.1735 582.69 64.9514C582.69 74.7294 584.88 82.466 589.266 88.1614C593.652 93.8567 599.54 96.7043 606.931 96.7043C610.034 96.7043 612.507 96.0651 614.343 94.7865C616.178 93.508 617.56 91.6192 618.481 89.1057L620.146 95.9416H641V95.1788C638.931 92.9414 637.747 89.6796 637.435 85.4009V85.3936ZM616.405 80.6281C616.022 85.6188 615.349 89.1566 614.392 91.2633C613.436 93.3627 612.153 94.416 610.545 94.416C609.205 94.416 608.008 93.4717 606.952 91.5902C605.896 89.7087 605.067 86.614 604.451 82.3135C603.834 78.0129 603.53 72.2304 603.53 64.966C603.53 45.3737 605.868 35.574 610.538 35.574C612.181 35.574 613.485 36.8889 614.442 39.5186C615.398 42.1483 616.05 46.5651 616.398 52.769V80.6281H616.405Z"/>
</mask>
<path d="M494.424 7.75508C496.866 8.01885 498.464 10.2346 497.557 12.6719C496.938 14.3284 495.64 14.455 494.228 14.9087C494.156 14.9298 494.063 14.9298 494.053 15.0354C495.506 15.1831 496.279 15.679 497.021 16.9135C497.773 18.169 498.309 19.5618 499.226 20.7119L499.968 21.366H495.63C493.476 21.366 493.105 16.2065 491.126 16.2065H489.879V19.7517C489.879 19.815 490.023 20.4164 490.064 20.5325C490.157 20.8279 490.312 21.0917 490.425 21.3766H485.045C485.355 20.6802 485.53 19.9733 485.581 19.2136C485.437 16.1643 485.767 12.9462 485.581 9.91806C485.54 9.14782 485.344 8.45145 485.035 7.75508H494.424ZM489.879 9.8864C489.961 11.1103 489.673 12.5031 489.807 13.7059C489.817 13.8009 489.807 13.8853 489.91 13.938H491.796C491.95 13.938 492.455 13.7587 492.61 13.6743C493.805 13.0517 493.898 10.9837 492.785 10.2346C492.651 10.1502 492.043 9.87585 491.919 9.87585H489.869L489.879 9.8864Z" fill="#E4DDC6"/>
<path d="M513.582 9.49601C517.767 5.33887 526.413 7.32248 526.939 13.8536C527.681 23.1703 514.046 24.4997 511.861 16.618C511.191 14.1913 511.799 11.2897 513.582 9.50656V9.49601ZM517.148 10.4667C515.159 12.5558 515.304 18.7177 518.529 19.4879C523.28 20.6274 524.022 11.6168 520.611 9.8653C519.457 9.27444 518.045 9.52766 517.148 10.4667Z" fill="#E4DDC6"/>
<path d="M402.763 7.75508L403.031 10.7094C402.702 10.6461 402.444 10.414 402.124 10.2979C401.908 10.2135 401.238 10.0236 401.042 10.0236H396.838V13.115H401.784L401.887 13.2839L402.094 16.1432C401.867 15.985 401.63 15.8478 401.372 15.7423C401.135 15.6473 400.311 15.3835 400.115 15.3835H396.848V19.0342H401.527C401.774 19.0342 402.516 18.781 402.774 18.6544C403.031 18.5278 403.237 18.3695 403.444 18.2112L403.176 21.3766H391.942C392.231 20.8174 392.396 20.1843 392.478 19.5512C392.313 16.312 392.684 12.8618 392.478 9.64373C392.437 8.96846 392.22 8.34594 391.932 7.75508H402.763Z" fill="#E4DDC6"/>
<path d="M437.546 7.75508C438.762 10.7199 439.926 13.727 441.153 16.6919C441.812 18.2851 442.348 20.0049 443.461 21.3449C443.482 21.5559 443.389 21.3766 443.358 21.3766H437.474C437.814 20.4375 437.721 19.4668 437.329 18.57L431.96 18.5911C431.537 19.4879 431.455 20.427 431.764 21.3766H427.93C428.343 20.944 428.672 20.4481 428.951 19.91C430.084 16.6286 431.64 13.3577 432.702 10.0658C432.97 9.22168 433.114 8.60972 432.64 7.79728C432.743 7.62846 432.784 7.76563 432.805 7.76563H437.546V7.75508ZM436.474 16.3542L434.454 11.1947L432.774 16.3542H436.474Z" fill="#E4DDC6"/>
<path d="M478.378 7.75508L483.211 19.6989L484.303 21.366H478.316C478.604 20.3742 478.542 19.509 478.171 18.5594L472.72 18.5911C472.4 19.5407 472.204 20.3953 472.596 21.3766H468.762C469.267 20.8279 469.607 20.1843 469.916 19.4985C471.37 16.2698 472.4 12.6613 473.73 9.3694C473.802 8.77853 473.688 8.29318 473.462 7.75508H478.378ZM477.234 16.3542L475.348 11.1947L473.534 16.3542H477.234Z" fill="#E4DDC6"/>
<path d="M536.09 17.5887L536.966 18.2323C538.141 19.0448 540.615 19.9733 541.862 18.992C542.418 18.5594 542.532 17.7364 542.047 17.1983C541.522 16.618 539.481 16.0694 538.657 15.6684C536.637 14.6872 535.586 13.3788 536.029 10.9626C536.781 6.90043 542.408 6.79492 545.325 8.22988L545.355 11.047L544.253 10.3507C543.212 9.77034 541.274 9.14782 540.213 9.89695C539.347 10.5089 539.656 11.4163 540.46 11.8911C542.521 13.1256 545.943 13.0728 546.283 16.3964C546.881 22.2312 539.801 22.5372 536.07 20.7224V17.5887H536.09Z" fill="#E4DDC6"/>
<path d="M367.919 17.5887C369.238 18.7071 370.959 19.5618 372.732 19.3719C374.123 19.2241 374.793 17.6626 373.392 16.8501C371.557 15.795 368.094 15.4679 367.796 12.6613C367.198 7.15366 373.392 6.5839 377.133 8.17712V11.0576C375.958 10.1713 374.062 9.23223 372.567 9.64373C371.423 9.96026 371.155 11.1631 372.186 11.8278C373.216 12.4925 374.721 12.7036 375.844 13.3155C379.297 15.1831 378.792 19.9522 375.216 21.2922C373.608 21.8936 371.042 21.7353 369.393 21.2922C368.898 21.155 368.373 20.9756 367.93 20.7224V17.5887H367.919Z" fill="#E4DDC6"/>
<path d="M390.592 7.75508L390.798 10.7832C390.448 10.6777 390.201 10.4034 389.86 10.2662C389.675 10.1924 389.057 10.0236 388.892 10.0236H386.903V19.6145C386.903 19.7728 387.037 20.2687 387.088 20.4586C387.181 20.7752 387.325 21.06 387.439 21.366H382.09C382.09 21.366 381.925 21.5348 381.987 21.3344C382.172 20.733 382.523 20.1632 382.523 19.4774V10.0236H380.472C380.389 10.0236 379.967 10.1291 379.864 10.1607C379.627 10.2346 378.648 10.8466 378.555 10.7832L378.823 7.75508H390.592Z" fill="#E4DDC6"/>
<path d="M511.006 7.75508L511.274 10.7832C511.274 10.7832 510.398 10.319 510.264 10.2662C510.12 10.2135 509.604 10.0236 509.491 10.0236H507.306V18.7915C507.409 19.6989 507.42 20.5747 507.914 21.3766H502.401C502.844 20.7013 502.906 19.8678 503.009 19.0764V10.0341H500.886C500.731 10.0341 500.226 10.2029 500.051 10.2768C499.742 10.4034 499.474 10.6039 499.175 10.7621L499.041 10.6883L499.309 7.76563H511.016L511.006 7.75508Z" fill="#E4DDC6"/>
<path d="M422.479 7.75508C422.169 8.47255 422.025 9.21113 421.943 9.99191V18.8549L422.004 18.9393C422.922 18.9604 423.88 19.0131 424.808 18.9709C425.447 18.9393 426.261 18.9076 426.859 18.6544C427.003 18.5911 427.755 18.1057 427.796 18.1374L427.456 21.366H417.027C417.192 21.0178 417.408 20.5958 417.48 20.216C417.563 19.7939 417.614 19.087 417.635 18.6544C417.748 16.196 417.728 13.21 417.635 10.741C417.614 10.2135 417.583 9.40105 417.48 8.90515C417.398 8.5042 417.192 8.12436 417.027 7.75508H422.479Z" fill="#E4DDC6"/>
<path d="M410.101 18.9709C411.121 18.9287 412.152 19.0237 413.162 18.9709C413.749 18.9393 414.471 18.8865 415.007 18.6544C415.151 18.5911 415.903 18.1057 415.945 18.1374L415.604 21.366H405.247C405.35 20.944 405.546 20.5852 405.628 20.1421C405.732 19.6251 405.762 18.9182 405.783 18.3801C405.876 16.0166 405.876 13.2417 405.783 10.8782C405.762 10.3084 405.732 9.51711 405.628 8.97901C405.546 8.54641 405.36 8.14547 405.175 7.75508H410.524C410.524 7.75508 410.658 7.58626 410.627 7.78673C410.513 8.39869 410.091 9.01066 410.091 9.78089V18.9604L410.101 18.9709Z" fill="#E4DDC6"/>
<path d="M533.875 21.3766H528.423C528.67 20.7224 528.876 20.1104 528.938 19.393C529.206 16.5231 528.773 13.305 528.959 10.4034C528.897 9.8864 528.918 9.4327 528.804 8.9157C528.701 8.4831 528.495 8.10326 528.423 7.69177C528.495 7.67067 528.567 7.75508 528.588 7.75508H533.699C533.699 7.75508 533.864 7.61791 533.864 7.78673C533.864 7.83949 533.545 8.47255 533.483 8.70468C533.349 9.23223 533.287 9.92861 533.256 10.4667C533.133 12.9779 533.143 16.1432 533.256 18.6544C533.277 19.1608 533.328 19.7728 533.442 20.2582C533.524 20.6486 533.679 21.0178 533.864 21.366L533.875 21.3766Z" fill="#E4DDC6"/>
<path d="M465.691 14.5183L458.765 13.4527L461.321 9.16893L457.199 11.7751L456.107 0L455.024 11.7751L450.902 9.16893L453.458 13.4527L446.532 14.5183L453.458 15.7317L450.902 20.0049L455.024 17.3988L456.107 29.0578L457.199 17.3988L461.321 20.0049L458.765 15.7317L465.691 14.5183Z" fill="#E4DDC6"/>
<path d="M451.255 43.9862C451.255 41.0805 450.157 38.6977 447.953 36.8308C445.749 34.9638 442.561 34.0339 438.387 34.0339C435.361 34.0339 432.988 34.2083 431.266 34.5643L428.679 35.1527C432.201 39.5477 433.965 45.5626 433.965 53.1758C433.965 60.7889 432.584 69.4336 429.827 78.1509L418.164 45.2866C417.434 43.0128 417.073 40.8698 417.073 38.8648C417.073 37.688 417.207 36.7944 417.477 36.1842C417.746 35.574 417.881 34.8621 417.881 34.0339H388.12V34.7967C389.884 36.0171 391.769 38.1529 393.782 41.2185C395.794 44.2841 397.41 47.248 398.635 50.1102L401.796 57.5344L393.583 76.916L382.324 45.2866C381.636 43.0128 381.289 40.8916 381.289 38.9229C381.289 37.7025 381.424 36.7944 381.693 36.1842C381.962 35.574 382.097 34.8621 382.097 34.0339H353.747L358.749 10.8967H335.777L330.767 34.0848H303.862L286.927 52.1587H286.693L294.913 10.8967H271.948L262.212 59.0454L262.183 59.1762C260.327 67.0145 259.859 78.5578 249.542 78.5578C246.183 78.5578 242.931 76.531 242.931 72.7244C242.931 72.7244 242.931 71.5185 243.144 69.8549L255.069 10.8967H232.104L225.847 41.6907C221.9 34.6732 215.403 32.5302 208.451 32.5302C196.533 32.5302 187.265 39.7002 182.375 51.3524C179.371 38.4144 168.827 32.5302 154.025 32.5302C147.045 32.5302 141.044 33.8378 136.02 36.1479C132.456 33.6271 127.666 32.5447 122.507 32.5447C115.202 32.5447 108.25 36.3513 103.843 41.9449H103.609L105.352 34.0993H83.2161C81.8344 18.1974 72.3606 10.8967 58.3378 10.8967H17.2753L0 95.789H25.1689L30.3841 70.1092H47.5531C62.3483 70.1092 73.5652 63.3097 79.241 53.5971L70.6813 95.789H93.6394L100.364 63.099C101.753 56.6772 104.19 51.3306 111.496 51.3306C115.202 51.3306 117.986 53.3501 117.986 57.2729C117.986 58.2754 117.795 59.5612 117.526 60.956H117.533C117.115 63.3678 116.895 65.8668 116.895 68.4311C116.895 89.1348 130.351 97.3363 146.939 97.3363C163.527 97.3363 174.12 88.7352 179.066 78.427C180.526 86.6794 185.479 97.3363 200.558 97.3363C207.509 97.3363 216.621 94.9972 220.575 89.1711L220.611 89.1856C223.728 94.9173 230.318 97.3363 237.836 97.3363C245.354 97.3363 251.285 94.4451 256.125 89.1711L254.786 95.789H277.843L278.084 94.1545L281.35 78.1945L286.559 73.4363L294.679 95.7963H319.614L304.302 58.9365L315.547 48.5919H327.72L322.385 73.9158C321.811 76.778 321.109 79.0299 321.109 82.3571C321.109 86.8755 323.426 91.75 327.373 94.0092C331.78 96.5082 336.996 96.5082 341.864 96.5082C345.846 96.283 349.821 95.7236 353.69 95.0553L357.162 77.9984C355.461 78.1219 353.534 78.318 350.218 78.318C346.618 78.318 345.577 76.6545 345.577 74.6349C345.577 72.6154 346.158 70.4724 346.618 68.4384L350.685 48.5919H362.072C362.306 49.1004 362.547 49.6162 362.753 50.1174L382.118 95.9416H388.035L402.972 60.4838L417.909 95.9416H424.577C426.072 90.6385 428.183 85.7423 430.926 81.2456C433.661 76.7489 436.53 72.4992 439.514 68.4965C441.583 65.627 443.51 62.8447 445.289 60.1351C447.067 57.4255 448.506 54.7449 449.597 52.0934C450.688 49.4418 451.234 46.7467 451.234 43.9935L451.255 43.9862ZM44.3078 49.8922H34.5647L38.1573 32.6537H46.8516C52.1872 32.6537 57.8701 33.7216 57.8701 40.2596C57.8701 45.9694 54.5043 49.8922 44.3007 49.8922H44.3078ZM147.981 80.214C141.483 80.214 139.86 75.2161 139.86 70.2327C139.86 63.8182 143.106 49.6598 152.268 49.6598C158.418 49.6598 160.275 53.8223 160.275 61.1885C160.275 66.5424 157.022 80.2068 147.981 80.2068V80.214ZM209.946 80.214C203.916 80.214 201.486 75.6956 201.486 70.1165C201.486 61.1957 204.497 49.6598 213.667 49.6598C219.583 49.6598 221.9 54.1783 221.9 61.0722C221.9 68.4384 218.889 80.214 209.954 80.214H209.946Z" fill="#E4DDC6"/>
<path d="M501.451 48.8171C499.134 44.0298 495.846 40.216 491.595 37.3901C487.343 34.5643 482.362 33.1477 476.658 33.1477C470.954 33.1477 465.923 34.5352 461.692 37.3029C457.462 40.0707 454.174 43.8482 451.836 48.6427C449.498 53.4373 448.328 58.8348 448.328 64.8425C448.328 70.8502 449.498 76.2985 451.836 81.0713C454.174 85.844 457.455 89.6215 461.692 92.4111C465.923 95.2006 470.911 96.5954 476.658 96.5954C482.404 96.5954 487.343 95.1788 491.595 92.3529C495.846 89.5271 499.127 85.7205 501.451 80.926C503.768 76.1387 504.93 70.7775 504.93 64.8425C504.93 58.9074 503.768 53.6116 501.451 48.8244V48.8171ZM483.148 82.1827C482.532 86.4833 481.674 89.5779 480.562 91.4594C479.449 93.3409 478.146 94.2853 476.658 94.2853C475.17 94.2853 473.802 93.3409 472.697 91.4594C471.584 89.5779 470.727 86.4833 470.11 82.1827C469.494 77.8822 469.189 72.0997 469.189 64.8352C469.189 57.5708 469.487 51.7955 470.082 47.5168C470.677 43.238 471.535 40.1506 472.668 38.2691C473.795 36.3876 475.127 35.4432 476.665 35.4432C478.202 35.4432 479.52 36.3876 480.626 38.2691C481.738 40.1506 482.589 43.238 483.184 47.5168C483.779 51.7955 484.076 57.5708 484.076 64.8352C484.076 72.0997 483.772 77.8822 483.155 82.1827H483.148Z" fill="#E4DDC6"/>
<path d="M557.847 59.83V58.8856C556.621 58.5297 555.828 57.7306 555.459 56.4738C555.098 55.2171 554.914 53.7061 554.914 51.9408C554.914 50.9964 554.935 49.9939 554.97 48.9333C555.006 47.8727 555.027 46.7758 555.027 45.6353C555.027 42.2573 553.716 39.3515 551.094 36.9179C548.473 34.4843 545.185 33.2639 541.238 33.2639C535.683 33.2639 531.509 35.2689 528.71 39.2716L526.932 34.0267H526.188C523.162 35.9881 520.023 37.2448 516.763 37.7969C513.511 38.349 509.316 38.6251 504.179 38.6251V39.3878C505.327 40.6446 506.17 42.1193 506.709 43.8046C507.247 45.49 507.58 47.277 507.715 49.1658C507.85 51.0473 507.913 52.8779 507.913 54.6432V79.8508C507.913 81.6161 507.85 83.454 507.715 85.3573C507.58 87.2606 507.247 89.0621 506.709 90.7475C506.17 92.4328 505.327 93.9075 504.179 95.1643V95.927H532.501V95.1643C531.311 93.9075 530.453 92.4328 529.915 90.7475C529.376 89.0621 529.05 87.2606 528.937 85.3573C528.824 83.454 528.767 81.6161 528.767 79.8508V54.4616C528.767 49.8704 529.227 46.0566 530.149 43.0346C531.07 40.0126 532.565 38.5016 534.627 38.5016C535.583 38.5016 536.271 38.8721 536.696 39.6203C537.114 40.3685 537.327 41.3057 537.327 42.4462C537.327 43.4269 537.001 44.7054 536.349 46.2745C535.966 47.139 535.619 48.1197 535.314 49.2166C535.01 50.3136 534.854 51.6502 534.854 53.2193C534.854 56.3649 536.136 58.9437 538.701 60.9633C541.266 62.9828 544.257 63.9998 547.665 63.9998C549.769 63.9998 551.718 63.6656 553.497 62.9973C555.275 62.329 556.721 61.2684 557.833 59.8155L557.847 59.83Z" fill="#E4DDC6"/>
<path d="M579.92 85.3936C579.806 83.5121 579.75 81.6597 579.75 79.8581V11.8846H579.006C576.632 13.3739 573.67 14.5144 570.127 15.2989C566.584 16.0835 562.843 16.4758 558.896 16.4758H555.162V17.2385C556.31 18.4953 557.153 19.97 557.691 21.6553C558.23 23.3407 558.563 25.1277 558.698 27.0165C558.832 28.898 558.896 30.7286 558.896 32.4939V79.8508C558.896 81.6597 558.832 83.5048 558.698 85.3863C558.563 87.2678 558.23 89.0549 557.691 90.7475C557.153 92.4328 556.31 93.9075 555.162 95.1643V95.927H583.427V95.1643C582.279 93.9075 581.436 92.4328 580.897 90.7475C580.359 89.0621 580.033 87.2751 579.92 85.3863V85.3936Z" fill="#E4DDC6"/>
<path d="M637.435 85.3936C637.322 83.5121 637.265 81.6597 637.265 79.8581V11.8846H636.521C634.148 13.3739 631.186 14.5144 627.643 15.2989C624.1 16.0835 620.359 16.4758 616.412 16.4758H612.677V17.2385C614.747 19.4397 615.93 22.6941 616.242 27.0165C616.355 28.898 616.412 32.0435 616.412 36.4385C613.925 34.3173 610.764 33.2566 606.931 33.2566C599.54 33.2566 593.652 36.097 589.266 41.7706C584.88 47.4441 582.69 55.1735 582.69 64.9514C582.69 74.7294 584.88 82.466 589.266 88.1614C593.652 93.8567 599.54 96.7043 606.931 96.7043C610.034 96.7043 612.507 96.0651 614.343 94.7865C616.178 93.508 617.56 91.6192 618.481 89.1057L620.146 95.9416H641V95.1788C638.931 92.9414 637.747 89.6796 637.435 85.4009V85.3936ZM616.405 80.6281C616.022 85.6188 615.349 89.1566 614.392 91.2633C613.436 93.3627 612.153 94.416 610.545 94.416C609.205 94.416 608.008 93.4717 606.952 91.5902C605.896 89.7087 605.067 86.614 604.451 82.3135C603.834 78.0129 603.53 72.2304 603.53 64.966C603.53 45.3737 605.868 35.574 610.538 35.574C612.181 35.574 613.485 36.8889 614.442 39.5186C615.398 42.1483 616.05 46.5651 616.398 52.769V80.6281H616.405Z" fill="#E4DDC6"/>
<path d="M494.424 7.75508C496.866 8.01885 498.464 10.2346 497.557 12.6719C496.938 14.3284 495.64 14.455 494.228 14.9087C494.156 14.9298 494.063 14.9298 494.053 15.0354C495.506 15.1831 496.279 15.679 497.021 16.9135C497.773 18.169 498.309 19.5618 499.226 20.7119L499.968 21.366H495.63C493.476 21.366 493.105 16.2065 491.126 16.2065H489.879V19.7517C489.879 19.815 490.023 20.4164 490.064 20.5325C490.157 20.8279 490.312 21.0917 490.425 21.3766H485.045C485.355 20.6802 485.53 19.9733 485.581 19.2136C485.437 16.1643 485.767 12.9462 485.581 9.91806C485.54 9.14782 485.344 8.45145 485.035 7.75508H494.424ZM489.879 9.8864C489.961 11.1103 489.673 12.5031 489.807 13.7059C489.817 13.8009 489.807 13.8853 489.91 13.938H491.796C491.95 13.938 492.455 13.7587 492.61 13.6743C493.805 13.0517 493.898 10.9837 492.785 10.2346C492.651 10.1502 492.043 9.87585 491.919 9.87585H489.869L489.879 9.8864Z" stroke="#E4DDC6" stroke-width="1.48788" mask="url(#path-1-inside-1_533_66)"/>
<path d="M513.582 9.49601C517.767 5.33887 526.413 7.32248 526.939 13.8536C527.681 23.1703 514.046 24.4997 511.861 16.618C511.191 14.1913 511.799 11.2897 513.582 9.50656V9.49601ZM517.148 10.4667C515.159 12.5558 515.304 18.7177 518.529 19.4879C523.28 20.6274 524.022 11.6168 520.611 9.8653C519.457 9.27444 518.045 9.52766 517.148 10.4667Z" stroke="#E4DDC6" stroke-width="1.48788" mask="url(#path-1-inside-1_533_66)"/>
<path d="M402.763 7.75508L403.031 10.7094C402.702 10.6461 402.444 10.414 402.124 10.2979C401.908 10.2135 401.238 10.0236 401.042 10.0236H396.838V13.115H401.784L401.887 13.2839L402.094 16.1432C401.867 15.985 401.63 15.8478 401.372 15.7423C401.135 15.6473 400.311 15.3835 400.115 15.3835H396.848V19.0342H401.527C401.774 19.0342 402.516 18.781 402.774 18.6544C403.031 18.5278 403.237 18.3695 403.444 18.2112L403.176 21.3766H391.942C392.231 20.8174 392.396 20.1843 392.478 19.5512C392.313 16.312 392.684 12.8618 392.478 9.64373C392.437 8.96846 392.22 8.34594 391.932 7.75508H402.763Z" stroke="#E4DDC6" stroke-width="1.48788" mask="url(#path-1-inside-1_533_66)"/>
<path d="M437.546 7.75508C438.762 10.7199 439.926 13.727 441.153 16.6919C441.812 18.2851 442.348 20.0049 443.461 21.3449C443.482 21.5559 443.389 21.3766 443.358 21.3766H437.474C437.814 20.4375 437.721 19.4668 437.329 18.57L431.96 18.5911C431.537 19.4879 431.455 20.427 431.764 21.3766H427.93C428.343 20.944 428.672 20.4481 428.951 19.91C430.084 16.6286 431.64 13.3577 432.702 10.0658C432.97 9.22168 433.114 8.60972 432.64 7.79728C432.743 7.62846 432.784 7.76563 432.805 7.76563H437.546V7.75508ZM436.474 16.3542L434.454 11.1947L432.774 16.3542H436.474Z" stroke="#E4DDC6" stroke-width="1.48788" mask="url(#path-1-inside-1_533_66)"/>
<path d="M478.378 7.75508L483.211 19.6989L484.303 21.366H478.316C478.604 20.3742 478.542 19.509 478.171 18.5594L472.72 18.5911C472.4 19.5407 472.204 20.3953 472.596 21.3766H468.762C469.267 20.8279 469.607 20.1843 469.916 19.4985C471.37 16.2698 472.4 12.6613 473.73 9.3694C473.802 8.77853 473.688 8.29318 473.462 7.75508H478.378ZM477.234 16.3542L475.348 11.1947L473.534 16.3542H477.234Z" stroke="#E4DDC6" stroke-width="1.48788" mask="url(#path-1-inside-1_533_66)"/>
<path d="M536.09 17.5887L536.966 18.2323C538.141 19.0448 540.615 19.9733 541.862 18.992C542.418 18.5594 542.532 17.7364 542.047 17.1983C541.522 16.618 539.481 16.0694 538.657 15.6684C536.637 14.6872 535.586 13.3788 536.029 10.9626C536.781 6.90043 542.408 6.79492 545.325 8.22988L545.355 11.047L544.253 10.3507C543.212 9.77034 541.274 9.14782 540.213 9.89695C539.347 10.5089 539.656 11.4163 540.46 11.8911C542.521 13.1256 545.943 13.0728 546.283 16.3964C546.881 22.2312 539.801 22.5372 536.07 20.7224V17.5887H536.09Z" stroke="#E4DDC6" stroke-width="1.48788" mask="url(#path-1-inside-1_533_66)"/>
<path d="M367.919 17.5887C369.238 18.7071 370.959 19.5618 372.732 19.3719C374.123 19.2241 374.793 17.6626 373.392 16.8501C371.557 15.795 368.094 15.4679 367.796 12.6613C367.198 7.15366 373.392 6.5839 377.133 8.17712V11.0576C375.958 10.1713 374.062 9.23223 372.567 9.64373C371.423 9.96026 371.155 11.1631 372.186 11.8278C373.216 12.4925 374.721 12.7036 375.844 13.3155C379.297 15.1831 378.792 19.9522 375.216 21.2922C373.608 21.8936 371.042 21.7353 369.393 21.2922C368.898 21.155 368.373 20.9756 367.93 20.7224V17.5887H367.919Z" stroke="#E4DDC6" stroke-width="1.48788" mask="url(#path-1-inside-1_533_66)"/>
<path d="M390.592 7.75508L390.798 10.7832C390.448 10.6777 390.201 10.4034 389.86 10.2662C389.675 10.1924 389.057 10.0236 388.892 10.0236H386.903V19.6145C386.903 19.7728 387.037 20.2687 387.088 20.4586C387.181 20.7752 387.325 21.06 387.439 21.366H382.09C382.09 21.366 381.925 21.5348 381.987 21.3344C382.172 20.733 382.523 20.1632 382.523 19.4774V10.0236H380.472C380.389 10.0236 379.967 10.1291 379.864 10.1607C379.627 10.2346 378.648 10.8466 378.555 10.7832L378.823 7.75508H390.592Z" stroke="#E4DDC6" stroke-width="1.48788" mask="url(#path-1-inside-1_533_66)"/>
<path d="M511.006 7.75508L511.274 10.7832C511.274 10.7832 510.398 10.319 510.264 10.2662C510.12 10.2135 509.604 10.0236 509.491 10.0236H507.306V18.7915C507.409 19.6989 507.42 20.5747 507.914 21.3766H502.401C502.844 20.7013 502.906 19.8678 503.009 19.0764V10.0341H500.886C500.731 10.0341 500.226 10.2029 500.051 10.2768C499.742 10.4034 499.474 10.6039 499.175 10.7621L499.041 10.6883L499.309 7.76563H511.016L511.006 7.75508Z" stroke="#E4DDC6" stroke-width="1.48788" mask="url(#path-1-inside-1_533_66)"/>
<path d="M422.479 7.75508C422.169 8.47255 422.025 9.21113 421.943 9.99191V18.8549L422.004 18.9393C422.922 18.9604 423.88 19.0131 424.808 18.9709C425.447 18.9393 426.261 18.9076 426.859 18.6544C427.003 18.5911 427.755 18.1057 427.796 18.1374L427.456 21.366H417.027C417.192 21.0178 417.408 20.5958 417.48 20.216C417.563 19.7939 417.614 19.087 417.635 18.6544C417.748 16.196 417.728 13.21 417.635 10.741C417.614 10.2135 417.583 9.40105 417.48 8.90515C417.398 8.5042 417.192 8.12436 417.027 7.75508H422.479Z" stroke="#E4DDC6" stroke-width="1.48788" mask="url(#path-1-inside-1_533_66)"/>
<path d="M410.101 18.9709C411.121 18.9287 412.152 19.0237 413.162 18.9709C413.749 18.9393 414.471 18.8865 415.007 18.6544C415.151 18.5911 415.903 18.1057 415.945 18.1374L415.604 21.366H405.247C405.35 20.944 405.546 20.5852 405.628 20.1421C405.732 19.6251 405.762 18.9182 405.783 18.3801C405.876 16.0166 405.876 13.2417 405.783 10.8782C405.762 10.3084 405.732 9.51711 405.628 8.97901C405.546 8.54641 405.36 8.14547 405.175 7.75508H410.524C410.524 7.75508 410.658 7.58626 410.627 7.78673C410.513 8.39869 410.091 9.01066 410.091 9.78089V18.9604L410.101 18.9709Z" stroke="#E4DDC6" stroke-width="1.48788" mask="url(#path-1-inside-1_533_66)"/>
<path d="M533.875 21.3766H528.423C528.67 20.7224 528.876 20.1104 528.938 19.393C529.206 16.5231 528.773 13.305 528.959 10.4034C528.897 9.8864 528.918 9.4327 528.804 8.9157C528.701 8.4831 528.495 8.10326 528.423 7.69177C528.495 7.67067 528.567 7.75508 528.588 7.75508H533.699C533.699 7.75508 533.864 7.61791 533.864 7.78673C533.864 7.83949 533.545 8.47255 533.483 8.70468C533.349 9.23223 533.287 9.92861 533.256 10.4667C533.133 12.9779 533.143 16.1432 533.256 18.6544C533.277 19.1608 533.328 19.7728 533.442 20.2582C533.524 20.6486 533.679 21.0178 533.864 21.366L533.875 21.3766Z" stroke="#E4DDC6" stroke-width="1.48788" mask="url(#path-1-inside-1_533_66)"/>
<path d="M465.691 14.5183L458.765 13.4527L461.321 9.16893L457.199 11.7751L456.107 0L455.024 11.7751L450.902 9.16893L453.458 13.4527L446.532 14.5183L453.458 15.7317L450.902 20.0049L455.024 17.3988L456.107 29.0578L457.199 17.3988L461.321 20.0049L458.765 15.7317L465.691 14.5183Z" stroke="#E4DDC6" stroke-width="1.48788" mask="url(#path-1-inside-1_533_66)"/>
<path d="M451.255 43.9862C451.255 41.0805 450.157 38.6977 447.953 36.8308C445.749 34.9638 442.561 34.0339 438.387 34.0339C435.361 34.0339 432.988 34.2083 431.266 34.5643L428.679 35.1527C432.201 39.5477 433.965 45.5626 433.965 53.1758C433.965 60.7889 432.584 69.4336 429.827 78.1509L418.164 45.2866C417.434 43.0128 417.073 40.8698 417.073 38.8648C417.073 37.688 417.207 36.7944 417.477 36.1842C417.746 35.574 417.881 34.8621 417.881 34.0339H388.12V34.7967C389.884 36.0171 391.769 38.1529 393.782 41.2185C395.794 44.2841 397.41 47.248 398.635 50.1102L401.796 57.5344L393.583 76.916L382.324 45.2866C381.636 43.0128 381.289 40.8916 381.289 38.9229C381.289 37.7025 381.424 36.7944 381.693 36.1842C381.962 35.574 382.097 34.8621 382.097 34.0339H353.747L358.749 10.8967H335.777L330.767 34.0848H303.862L286.927 52.1587H286.693L294.913 10.8967H271.948L262.212 59.0454L262.183 59.1762C260.327 67.0145 259.859 78.5578 249.542 78.5578C246.183 78.5578 242.931 76.531 242.931 72.7244C242.931 72.7244 242.931 71.5185 243.144 69.8549L255.069 10.8967H232.104L225.847 41.6907C221.9 34.6732 215.403 32.5302 208.451 32.5302C196.533 32.5302 187.265 39.7002 182.375 51.3524C179.371 38.4144 168.827 32.5302 154.025 32.5302C147.045 32.5302 141.044 33.8378 136.02 36.1479C132.456 33.6271 127.666 32.5447 122.507 32.5447C115.202 32.5447 108.25 36.3513 103.843 41.9449H103.609L105.352 34.0993H83.2161C81.8344 18.1974 72.3606 10.8967 58.3378 10.8967H17.2753L0 95.789H25.1689L30.3841 70.1092H47.5531C62.3483 70.1092 73.5652 63.3097 79.241 53.5971L70.6813 95.789H93.6394L100.364 63.099C101.753 56.6772 104.19 51.3306 111.496 51.3306C115.202 51.3306 117.986 53.3501 117.986 57.2729C117.986 58.2754 117.795 59.5612 117.526 60.956H117.533C117.115 63.3678 116.895 65.8668 116.895 68.4311C116.895 89.1348 130.351 97.3363 146.939 97.3363C163.527 97.3363 174.12 88.7352 179.066 78.427C180.526 86.6794 185.479 97.3363 200.558 97.3363C207.509 97.3363 216.621 94.9972 220.575 89.1711L220.611 89.1856C223.728 94.9173 230.318 97.3363 237.836 97.3363C245.354 97.3363 251.285 94.4451 256.125 89.1711L254.786 95.789H277.843L278.084 94.1545L281.35 78.1945L286.559 73.4363L294.679 95.7963H319.614L304.302 58.9365L315.547 48.5919H327.72L322.385 73.9158C321.811 76.778 321.109 79.0299 321.109 82.3571C321.109 86.8755 323.426 91.75 327.373 94.0092C331.78 96.5082 336.996 96.5082 341.864 96.5082C345.846 96.283 349.821 95.7236 353.69 95.0553L357.162 77.9984C355.461 78.1219 353.534 78.318 350.218 78.318C346.618 78.318 345.577 76.6545 345.577 74.6349C345.577 72.6154 346.158 70.4724 346.618 68.4384L350.685 48.5919H362.072C362.306 49.1004 362.547 49.6162 362.753 50.1174L382.118 95.9416H388.035L402.972 60.4838L417.909 95.9416H424.577C426.072 90.6385 428.183 85.7423 430.926 81.2456C433.661 76.7489 436.53 72.4992 439.514 68.4965C441.583 65.627 443.51 62.8447 445.289 60.1351C447.067 57.4255 448.506 54.7449 449.597 52.0934C450.688 49.4418 451.234 46.7467 451.234 43.9935L451.255 43.9862ZM44.3078 49.8922H34.5647L38.1573 32.6537H46.8516C52.1872 32.6537 57.8701 33.7216 57.8701 40.2596C57.8701 45.9694 54.5043 49.8922 44.3007 49.8922H44.3078ZM147.981 80.214C141.483 80.214 139.86 75.2161 139.86 70.2327C139.86 63.8182 143.106 49.6598 152.268 49.6598C158.418 49.6598 160.275 53.8223 160.275 61.1885C160.275 66.5424 157.022 80.2068 147.981 80.2068V80.214ZM209.946 80.214C203.916 80.214 201.486 75.6956 201.486 70.1165C201.486 61.1957 204.497 49.6598 213.667 49.6598C219.583 49.6598 221.9 54.1783 221.9 61.0722C221.9 68.4384 218.889 80.214 209.954 80.214H209.946Z" stroke="#E4DDC6" stroke-width="1.48788" mask="url(#path-1-inside-1_533_66)"/>
<path d="M501.451 48.8171C499.134 44.0298 495.846 40.216 491.595 37.3901C487.343 34.5643 482.362 33.1477 476.658 33.1477C470.954 33.1477 465.923 34.5352 461.692 37.3029C457.462 40.0707 454.174 43.8482 451.836 48.6427C449.498 53.4373 448.328 58.8348 448.328 64.8425C448.328 70.8502 449.498 76.2985 451.836 81.0713C454.174 85.844 457.455 89.6215 461.692 92.4111C465.923 95.2006 470.911 96.5954 476.658 96.5954C482.404 96.5954 487.343 95.1788 491.595 92.3529C495.846 89.5271 499.127 85.7205 501.451 80.926C503.768 76.1387 504.93 70.7775 504.93 64.8425C504.93 58.9074 503.768 53.6116 501.451 48.8244V48.8171ZM483.148 82.1827C482.532 86.4833 481.674 89.5779 480.562 91.4594C479.449 93.3409 478.146 94.2853 476.658 94.2853C475.17 94.2853 473.802 93.3409 472.697 91.4594C471.584 89.5779 470.727 86.4833 470.11 82.1827C469.494 77.8822 469.189 72.0997 469.189 64.8352C469.189 57.5708 469.487 51.7955 470.082 47.5168C470.677 43.238 471.535 40.1506 472.668 38.2691C473.795 36.3876 475.127 35.4432 476.665 35.4432C478.202 35.4432 479.52 36.3876 480.626 38.2691C481.738 40.1506 482.589 43.238 483.184 47.5168C483.779 51.7955 484.076 57.5708 484.076 64.8352C484.076 72.0997 483.772 77.8822 483.155 82.1827H483.148Z" stroke="#E4DDC6" stroke-width="1.48788" mask="url(#path-1-inside-1_533_66)"/>
<path d="M557.847 59.83V58.8856C556.621 58.5297 555.828 57.7306 555.459 56.4738C555.098 55.2171 554.914 53.7061 554.914 51.9408C554.914 50.9964 554.935 49.9939 554.97 48.9333C555.006 47.8727 555.027 46.7758 555.027 45.6353C555.027 42.2573 553.716 39.3515 551.094 36.9179C548.473 34.4843 545.185 33.2639 541.238 33.2639C535.683 33.2639 531.509 35.2689 528.71 39.2716L526.932 34.0267H526.188C523.162 35.9881 520.023 37.2448 516.763 37.7969C513.511 38.349 509.316 38.6251 504.179 38.6251V39.3878C505.327 40.6446 506.17 42.1193 506.709 43.8046C507.247 45.49 507.58 47.277 507.715 49.1658C507.85 51.0473 507.913 52.8779 507.913 54.6432V79.8508C507.913 81.6161 507.85 83.454 507.715 85.3573C507.58 87.2606 507.247 89.0621 506.709 90.7475C506.17 92.4328 505.327 93.9075 504.179 95.1643V95.927H532.501V95.1643C531.311 93.9075 530.453 92.4328 529.915 90.7475C529.376 89.0621 529.05 87.2606 528.937 85.3573C528.824 83.454 528.767 81.6161 528.767 79.8508V54.4616C528.767 49.8704 529.227 46.0566 530.149 43.0346C531.07 40.0126 532.565 38.5016 534.627 38.5016C535.583 38.5016 536.271 38.8721 536.696 39.6203C537.114 40.3685 537.327 41.3057 537.327 42.4462C537.327 43.4269 537.001 44.7054 536.349 46.2745C535.966 47.139 535.619 48.1197 535.314 49.2166C535.01 50.3136 534.854 51.6502 534.854 53.2193C534.854 56.3649 536.136 58.9437 538.701 60.9633C541.266 62.9828 544.257 63.9998 547.665 63.9998C549.769 63.9998 551.718 63.6656 553.497 62.9973C555.275 62.329 556.721 61.2684 557.833 59.8155L557.847 59.83Z" stroke="#E4DDC6" stroke-width="1.48788" mask="url(#path-1-inside-1_533_66)"/>
<path d="M579.92 85.3936C579.806 83.5121 579.75 81.6597 579.75 79.8581V11.8846H579.006C576.632 13.3739 573.67 14.5144 570.127 15.2989C566.584 16.0835 562.843 16.4758 558.896 16.4758H555.162V17.2385C556.31 18.4953 557.153 19.97 557.691 21.6553C558.23 23.3407 558.563 25.1277 558.698 27.0165C558.832 28.898 558.896 30.7286 558.896 32.4939V79.8508C558.896 81.6597 558.832 83.5048 558.698 85.3863C558.563 87.2678 558.23 89.0549 557.691 90.7475C557.153 92.4328 556.31 93.9075 555.162 95.1643V95.927H583.427V95.1643C582.279 93.9075 581.436 92.4328 580.897 90.7475C580.359 89.0621 580.033 87.2751 579.92 85.3863V85.3936Z" stroke="#E4DDC6" stroke-width="1.48788" mask="url(#path-1-inside-1_533_66)"/>
<path d="M637.435 85.3936C637.322 83.5121 637.265 81.6597 637.265 79.8581V11.8846H636.521C634.148 13.3739 631.186 14.5144 627.643 15.2989C624.1 16.0835 620.359 16.4758 616.412 16.4758H612.677V17.2385C614.747 19.4397 615.93 22.6941 616.242 27.0165C616.355 28.898 616.412 32.0435 616.412 36.4385C613.925 34.3173 610.764 33.2566 606.931 33.2566C599.54 33.2566 593.652 36.097 589.266 41.7706C584.88 47.4441 582.69 55.1735 582.69 64.9514C582.69 74.7294 584.88 82.466 589.266 88.1614C593.652 93.8567 599.54 96.7043 606.931 96.7043C610.034 96.7043 612.507 96.0651 614.343 94.7865C616.178 93.508 617.56 91.6192 618.481 89.1057L620.146 95.9416H641V95.1788C638.931 92.9414 637.747 89.6796 637.435 85.4009V85.3936ZM616.405 80.6281C616.022 85.6188 615.349 89.1566 614.392 91.2633C613.436 93.3627 612.153 94.416 610.545 94.416C609.205 94.416 608.008 93.4717 606.952 91.5902C605.896 89.7087 605.067 86.614 604.451 82.3135C603.834 78.0129 603.53 72.2304 603.53 64.966C603.53 45.3737 605.868 35.574 610.538 35.574C612.181 35.574 613.485 36.8889 614.442 39.5186C615.398 42.1483 616.05 46.5651 616.398 52.769V80.6281H616.405Z" stroke="#E4DDC6" stroke-width="1.48788" mask="url(#path-1-inside-1_533_66)"/>
</svg>
