<svg width="826" height="241" viewBox="0 0 826 241" fill="none" xmlns="http://www.w3.org/2000/svg">
<path d="M476.5 12.8431C480.629 13.2799 483.33 16.9494 481.797 20.9858C480.751 23.7291 478.556 23.9388 476.169 24.6901C476.047 24.7251 475.89 24.7251 475.873 24.8998C478.329 25.1445 479.636 25.9657 480.891 28.0101C482.163 30.0895 483.068 32.396 484.619 34.3006L485.874 35.384H478.539C474.897 35.384 474.27 26.8394 470.925 26.8394H468.817V32.7105C468.817 32.8154 469.061 33.8113 469.13 34.0036C469.287 34.4928 469.548 34.9297 469.74 35.4014H460.645C461.168 34.2482 461.464 33.0775 461.551 31.8194C461.307 26.7695 461.865 21.4401 461.551 16.4251C461.482 15.1496 461.151 13.9963 460.628 12.8431H476.5ZM468.817 16.3727C468.956 18.3997 468.468 20.7062 468.695 22.6982C468.712 22.8554 468.695 22.9952 468.869 23.0826H472.057C472.319 23.0826 473.172 22.7855 473.434 22.6457C475.455 21.6148 475.612 18.19 473.73 16.9494C473.503 16.8096 472.475 16.3553 472.266 16.3553H468.799L468.817 16.3727Z" fill="#E4DDC6"/>
<path d="M508.889 15.7262C515.963 8.84162 530.581 12.1267 531.469 22.9428C532.724 38.3719 509.673 40.5736 505.98 27.5209C504.847 23.5019 505.875 18.6967 508.889 15.7437V15.7262ZM514.917 17.3338C511.555 20.7935 511.799 30.9981 517.252 32.2737C525.284 34.1608 526.539 19.2384 520.772 16.3378C518.82 15.3593 516.433 15.7786 514.917 17.3338Z" fill="#E4DDC6"/>
<path d="M321.541 12.8431L321.995 17.7357C321.437 17.6308 321.001 17.2464 320.461 17.0542C320.095 16.9144 318.963 16.5999 318.632 16.5999H311.523V21.7196H319.886L320.061 21.9992L320.409 26.7346C320.026 26.4725 319.625 26.2453 319.189 26.0706C318.789 25.9133 317.395 25.4765 317.064 25.4765H311.541V31.5223H319.451C319.869 31.5223 321.123 31.1029 321.559 30.8933C321.994 30.6836 322.343 30.4215 322.691 30.1594L322.238 35.4014H303.247C303.735 34.4753 304.014 33.4269 304.154 32.3785C303.875 27.0141 304.502 21.3003 304.154 15.9708C304.084 14.8525 303.718 13.8216 303.23 12.8431H321.541Z" fill="#E4DDC6"/>
<path d="M380.344 12.8431C382.399 17.7531 384.368 22.7331 386.441 27.6432C387.557 30.2817 388.463 33.1299 390.344 35.349C390.379 35.6985 390.222 35.4014 390.17 35.4014H380.222C380.797 33.8463 380.64 32.2387 379.978 30.7535L370.9 30.7884C370.186 32.2737 370.047 33.8288 370.569 35.4014H364.088C364.785 34.685 365.342 33.8638 365.813 32.9726C367.729 27.5383 370.36 22.1215 372.155 16.6698C372.608 15.2719 372.852 14.2584 372.05 12.913C372.224 12.6334 372.294 12.8605 372.329 12.8605H380.344V12.8431ZM378.532 27.084L375.117 18.5395L372.277 27.084H378.532Z" fill="#E4DDC6"/>
<path d="M449.373 12.8431L457.544 32.6231L459.391 35.384H449.268C449.756 33.7415 449.651 32.3086 449.024 30.736L439.808 30.7884C439.268 32.361 438.936 33.7764 439.599 35.4014H433.117C433.971 34.4928 434.546 33.4269 435.069 32.2911C437.525 26.9442 439.267 20.9683 441.515 15.5165C441.637 14.538 441.445 13.7342 441.062 12.8431H449.373ZM447.439 27.084L444.25 18.5395L441.184 27.084H447.439Z" fill="#E4DDC6"/>
<path d="M546.941 29.1284L548.422 30.1943C550.408 31.5398 554.589 33.0775 556.697 31.4524C557.638 30.736 557.83 29.3731 557.011 28.4819C556.122 27.5209 552.673 26.6122 551.279 25.9482C547.864 24.3232 546.087 22.1565 546.836 18.155C548.108 11.4277 557.621 11.253 562.552 13.6294L562.604 18.2948L560.739 17.1416C558.98 16.1805 555.704 15.1496 553.91 16.3902C552.446 17.4037 552.969 18.9064 554.328 19.6927C557.812 21.7371 563.597 21.6497 564.172 27.1539C565.182 36.8168 553.213 37.3235 546.906 34.3181V29.1284H546.941Z" fill="#E4DDC6"/>
<path d="M262.635 29.1284C264.865 30.9806 267.775 32.396 270.771 32.0815C273.123 31.8368 274.256 29.2507 271.886 27.9053C268.785 26.1579 262.931 25.6162 262.426 20.9683C261.415 11.8471 271.886 10.9035 278.211 13.542V18.3123C276.225 16.8445 273.019 15.2894 270.493 15.9708C268.559 16.495 268.106 18.487 269.848 19.5879C271.59 20.6887 274.134 21.0382 276.033 22.0516C281.87 25.1445 281.016 33.0425 274.97 35.2617C272.252 36.2576 267.914 35.9955 265.126 35.2617C264.29 35.0345 263.401 34.7374 262.652 34.3181V29.1284H262.635Z" fill="#E4DDC6"/>
<path d="M300.965 12.8431L301.314 17.858C300.721 17.6832 300.303 17.2289 299.728 17.0018C299.415 16.8795 298.369 16.5999 298.09 16.5999H294.728V32.4834C294.728 32.7455 294.954 33.5667 295.041 33.8812C295.198 34.4054 295.442 34.8772 295.634 35.384H286.591C286.591 35.384 286.312 35.6635 286.417 35.3315C286.731 34.3356 287.323 33.392 287.323 32.2562V16.5999H283.856C283.717 16.5999 283.002 16.7746 282.828 16.827C282.427 16.9494 280.772 17.9628 280.615 17.858L281.068 12.8431H300.965Z" fill="#E4DDC6"/>
<path d="M504.533 12.8431L504.986 17.858C504.986 17.858 503.506 17.0891 503.279 17.0018C503.035 16.9144 502.164 16.5999 501.972 16.5999H498.279V31.1204C498.453 32.6231 498.47 34.0735 499.307 35.4014H489.985C490.735 34.2831 490.839 32.9027 491.013 31.5922V16.6174H487.424C487.163 16.6174 486.309 16.8969 486.013 17.0193C485.49 17.2289 485.037 17.5609 484.532 17.823L484.305 17.7007L484.759 12.8605H504.551L504.533 12.8431Z" fill="#E4DDC6"/>
<path d="M354.871 12.8431C354.349 14.0313 354.105 15.2544 353.965 16.5475V31.2253L354.07 31.3651C355.621 31.4 357.241 31.4874 358.809 31.4175C359.889 31.365 361.265 31.3126 362.276 30.8933C362.52 30.7884 363.792 29.9846 363.862 30.0371L363.287 35.384H345.655C345.933 34.8073 346.299 34.1084 346.421 33.4794C346.561 32.7804 346.648 31.6097 346.683 30.8933C346.874 26.8219 346.839 21.8769 346.683 17.7881C346.648 16.9144 346.596 15.5689 346.421 14.7477C346.282 14.0837 345.933 13.4546 345.655 12.8431H354.871Z" fill="#E4DDC6"/>
<path d="M333.947 31.4175C335.671 31.3476 337.414 31.5048 339.121 31.4175C340.114 31.365 341.334 31.2777 342.24 30.8933C342.484 30.7884 343.756 29.9846 343.825 30.0371L343.25 35.384H325.74C325.915 34.685 326.246 34.0909 326.385 33.357C326.559 32.5008 326.611 31.3301 326.646 30.4389C326.803 26.5249 326.803 21.9293 326.646 18.0152C326.611 17.0717 326.559 15.7612 326.385 14.87C326.246 14.1536 325.932 13.4896 325.618 12.8431H334.661C334.661 12.8431 334.887 12.5635 334.835 12.8955C334.643 13.909 333.929 14.9224 333.929 16.198V31.4L333.947 31.4175Z" fill="#E4DDC6"/>
<path d="M543.195 35.4014H533.978C534.396 34.3181 534.745 33.3046 534.849 32.1164C535.302 27.3636 534.57 22.0342 534.884 17.2289C534.78 16.3727 534.814 15.6214 534.623 14.7652C534.448 14.0487 534.1 13.4197 533.978 12.7382C534.1 12.7033 534.222 12.8431 534.257 12.8431H542.898C542.898 12.8431 543.177 12.6159 543.177 12.8955C543.177 12.9829 542.637 14.0313 542.533 14.4157C542.306 15.2894 542.202 16.4426 542.149 17.3338C541.94 21.4925 541.958 26.7346 542.149 30.8933C542.184 31.732 542.271 32.7455 542.463 33.5492C542.602 34.1958 542.864 34.8073 543.177 35.384L543.195 35.4014Z" fill="#E4DDC6"/>
<path d="M427.925 24.0436L416.217 22.2788L420.538 15.1845L413.569 19.5005L411.722 0L409.893 19.5005L402.923 15.1845L407.244 22.2788L395.536 24.0436L407.244 26.0531L402.923 33.1299L409.893 28.8139L411.722 48.1222L413.569 28.8139L420.538 33.1299L416.217 26.0531L427.925 24.0436Z" fill="#E4DDC6"/>
<path d="M581.374 94.6252C581.374 90.9579 579.959 87.9507 577.12 85.5945C574.281 83.2383 570.173 82.0647 564.796 82.0647C560.898 82.0647 557.84 82.2848 555.621 82.734L552.289 83.4766C556.826 89.0234 559.099 96.6147 559.099 106.223C559.099 115.831 557.319 126.742 553.768 137.743L538.742 96.2663C537.801 93.3967 537.336 90.692 537.336 88.1616C537.336 86.6764 537.509 85.5487 537.856 84.7785C538.203 84.0084 538.376 83.1099 538.376 82.0647H500.034V83.0274C502.308 84.5677 504.736 87.2631 507.329 91.1321C509.921 95.0011 512.003 98.7417 513.582 102.354L517.654 111.724L507.073 136.185L492.567 96.2663C491.681 93.3967 491.234 90.7196 491.234 88.235C491.234 86.6947 491.408 85.5487 491.754 84.7785C492.101 84.0084 492.275 83.1099 492.275 82.0647H455.749L462.195 52.8639H432.598L426.144 82.1289H391.481L369.663 104.939H369.361L379.951 52.8639H350.364L337.82 113.631L337.784 113.796C335.392 123.688 334.79 138.257 321.498 138.257C317.171 138.257 312.98 135.699 312.98 130.895C312.98 130.895 312.98 129.373 313.254 127.273L328.618 52.8639H299.031L290.97 91.7281C285.885 82.8715 277.514 80.1669 268.558 80.1669C253.203 80.1669 241.262 89.216 234.963 103.922C231.093 87.5932 217.509 80.1669 198.438 80.1669C189.446 80.1669 181.714 81.8172 175.241 84.7327C170.649 81.5513 164.478 80.1852 157.832 80.1852C148.42 80.1852 139.464 84.9894 133.786 92.0489H133.485L135.731 82.1473H107.212C105.431 62.078 93.2258 52.8639 75.1595 52.8639H22.2566L0 160.004H32.4264L39.1454 127.594H61.265C80.3265 127.594 94.7778 119.013 102.09 106.755L91.0623 160.004H120.64L129.304 118.747C131.093 110.642 134.234 103.894 143.646 103.894C148.42 103.894 152.008 106.443 152.008 111.394C152.008 112.659 151.761 114.282 151.414 116.042H151.424C150.885 119.086 150.602 122.24 150.602 125.476C150.602 151.606 167.938 161.957 189.309 161.957C210.68 161.957 224.328 151.102 230.7 138.092C232.581 148.507 238.962 161.957 258.389 161.957C267.344 161.957 279.084 159.005 284.178 151.652L284.224 151.67C288.241 158.904 296.731 161.957 306.416 161.957C316.102 161.957 323.743 158.308 329.979 151.652L328.253 160.004H357.959L358.27 157.941L362.478 137.798L369.188 131.793L379.65 160.013H411.775L392.047 113.493L406.535 100.438H422.218L415.344 132.398C414.605 136.011 413.701 138.853 413.701 143.052C413.701 148.754 416.686 154.906 421.771 157.758C427.449 160.912 434.168 160.912 440.44 160.912C445.571 160.627 450.692 159.921 455.676 159.078L460.15 137.551C457.959 137.707 455.476 137.954 451.203 137.954C446.566 137.954 445.224 135.855 445.224 133.306C445.224 130.757 445.972 128.053 446.566 125.485L451.806 100.438H466.476C466.777 101.08 467.088 101.731 467.353 102.363L492.302 160.196H499.925L519.169 115.446L538.413 160.196H547.003C548.93 153.504 551.65 147.324 555.183 141.649C558.707 135.974 562.404 130.611 566.247 125.559C568.913 121.937 571.396 118.426 573.688 115.006C575.979 111.586 577.832 108.203 579.238 104.857C580.644 101.511 581.347 98.1091 581.347 94.6344L581.374 94.6252ZM57.0839 102.079H44.5315L49.1599 80.3228H60.3613C67.2354 80.3228 74.5569 81.6705 74.5569 89.9219C74.5569 97.1281 70.2206 102.079 57.0748 102.079H57.0839ZM190.651 140.347C182.28 140.347 180.189 134.039 180.189 127.75C180.189 119.654 184.37 101.786 196.174 101.786C204.098 101.786 206.49 107.039 206.49 116.336C206.49 123.093 202.3 140.338 190.651 140.338V140.347ZM270.485 140.347C262.716 140.347 259.584 134.645 259.584 127.603C259.584 116.345 263.464 101.786 275.277 101.786C282.9 101.786 285.885 107.488 285.885 116.189C285.885 125.485 282.005 140.347 270.494 140.347H270.485Z" fill="#E4DDC6"/>
<path d="M646.044 100.722C643.059 94.6802 638.823 89.8669 633.346 86.3005C627.869 82.734 621.451 80.9462 614.102 80.9462C606.753 80.9462 600.271 82.6973 594.821 86.1904C589.371 89.6835 585.135 94.451 582.123 100.502C579.11 106.553 577.604 113.365 577.604 120.947C577.604 128.529 579.11 135.405 582.123 141.429C585.135 147.453 589.362 152.22 594.821 155.741C600.271 159.261 606.698 161.022 614.102 161.022C621.506 161.022 627.869 159.234 633.346 155.667C638.823 152.101 643.05 147.297 646.044 141.246C649.03 135.204 650.527 128.438 650.527 120.947C650.527 113.457 649.03 106.773 646.044 100.731V100.722ZM622.464 142.832C621.67 148.259 620.565 152.165 619.132 154.54C617.699 156.914 616.019 158.106 614.102 158.106C612.185 158.106 610.423 156.914 608.999 154.54C607.566 152.165 606.461 148.259 605.667 142.832C604.872 137.404 604.48 130.106 604.48 120.938C604.48 111.77 604.863 104.481 605.63 99.081C606.397 93.6809 607.502 89.7844 608.962 87.4098C610.414 85.0352 612.13 83.8434 614.111 83.8434C616.092 83.8434 617.79 85.0352 619.214 87.4098C620.647 89.7844 621.743 93.6809 622.51 99.081C623.277 104.481 623.66 111.77 623.66 120.938C623.66 130.106 623.267 137.404 622.473 142.832H622.464Z" fill="#E4DDC6"/>
<path d="M718.703 114.621V113.429C717.123 112.98 716.101 111.972 715.626 110.385C715.161 108.799 714.923 106.892 714.923 104.664C714.923 103.473 714.951 102.207 714.996 100.869C715.042 99.5302 715.069 98.1458 715.069 96.7064C715.069 92.4432 713.38 88.7759 710.003 85.7045C706.625 82.6332 702.389 81.0929 697.304 81.0929C690.147 81.0929 684.77 83.6233 681.164 88.675L678.873 82.0556H677.914C674.016 84.531 669.972 86.1171 665.772 86.8139C661.582 87.5107 656.178 87.8591 649.559 87.8591V88.8217C651.038 90.4078 652.124 92.269 652.818 94.396C653.512 96.523 653.941 98.7784 654.115 101.162C654.288 103.537 654.37 105.847 654.37 108.075V139.889C654.37 142.117 654.288 144.436 654.115 146.838C653.941 149.24 653.512 151.514 652.818 153.641C652.124 155.768 651.038 157.629 649.559 159.215V160.178H686.048V159.215C684.514 157.629 683.41 155.768 682.716 153.641C682.022 151.514 681.602 149.24 681.456 146.838C681.31 144.436 681.237 142.117 681.237 139.889V107.846C681.237 102.051 681.83 97.2382 683.017 93.4242C684.204 89.6102 686.13 87.7032 688.787 87.7032C690.019 87.7032 690.905 88.1708 691.452 89.1151C691.991 90.0594 692.265 91.2421 692.265 92.6815C692.265 93.9193 691.845 95.5329 691.005 97.5132C690.512 98.6042 690.065 99.8419 689.672 101.226C689.28 102.611 689.079 104.298 689.079 106.278C689.079 110.248 690.731 113.503 694.036 116.051C697.341 118.6 701.193 119.884 705.584 119.884C708.295 119.884 710.806 119.462 713.097 118.618C715.389 117.775 717.251 116.436 718.684 114.603L718.703 114.621Z" fill="#E4DDC6"/>
<path d="M747.14 146.884C746.993 144.51 746.92 142.172 746.92 139.898V54.1108H745.962C742.904 55.9903 739.088 57.4297 734.523 58.4199C729.959 59.41 725.139 59.9051 720.054 59.9051H715.243V60.8678C716.722 62.4539 717.808 64.3151 718.502 66.4421C719.196 68.5691 719.625 70.8245 719.798 73.2082C719.971 75.5828 720.054 77.8932 720.054 80.1211V139.889C720.054 142.172 719.971 144.5 719.798 146.875C719.625 149.25 719.196 151.505 718.502 153.641C717.808 155.768 716.722 157.629 715.243 159.215V160.178H751.658V159.215C750.18 157.629 749.093 155.768 748.399 153.641C747.706 151.514 747.286 149.259 747.14 146.875V146.884Z" fill="#E4DDC6"/>
<path d="M821.24 146.884C821.094 144.51 821.021 142.172 821.021 139.898V54.1108H820.062C817.004 55.9903 813.188 57.4297 808.624 58.4199C804.059 59.41 799.239 59.9051 794.154 59.9051H789.343V60.8678C792.009 63.6458 793.533 67.7531 793.935 73.2082C794.081 75.5828 794.154 79.5526 794.154 85.0994C790.95 82.4223 786.878 81.0837 781.939 81.0837C772.418 81.0837 764.832 84.6685 759.181 91.8289C753.53 98.9893 750.709 108.744 750.709 121.085C750.709 133.425 753.53 143.189 759.181 150.377C764.832 157.565 772.418 161.159 781.939 161.159C785.938 161.159 789.124 160.352 791.488 158.739C793.853 157.125 795.633 154.741 796.82 151.569L798.965 160.196H825.832V159.234C823.166 156.41 821.642 152.293 821.24 146.893V146.884ZM794.145 140.87C793.652 147.168 792.785 151.633 791.552 154.292C790.32 156.942 788.668 158.271 786.595 158.271C784.87 158.271 783.327 157.079 781.967 154.705C780.607 152.33 779.539 148.424 778.744 142.997C777.95 137.569 777.557 130.271 777.557 121.103C777.557 96.3764 780.57 84.0084 786.586 84.0084C788.704 84.0084 790.384 85.6679 791.616 88.9868C792.849 92.3057 793.689 97.8799 794.136 105.71V140.87H794.145Z" fill="#E4DDC6"/>
<path d="M176.964 210.215H167.334V209.974C167.705 209.59 167.977 209.133 168.15 208.601C168.324 208.069 168.429 207.506 168.466 206.912C168.515 206.306 168.54 205.725 168.54 205.168V188.803C168.54 188.246 168.515 187.671 168.466 187.077C168.429 186.484 168.324 185.921 168.15 185.389C167.977 184.857 167.705 184.393 167.334 183.997V183.756H188.189L188.895 190.25H188.561C188.09 188.791 187.336 187.64 186.297 186.799C185.258 185.958 184.151 185.364 182.976 185.018C181.8 184.659 180.811 184.48 180.007 184.48H176.574C176.191 185.086 175.956 185.779 175.869 186.558C175.795 187.325 175.758 188.073 175.758 188.803V198.154H180.675C181.306 198.154 181.961 198.117 182.642 198.043C183.322 197.957 183.965 197.746 184.571 197.412C185.19 197.066 185.722 196.509 186.167 195.742H186.445V201.29H186.167C185.722 200.523 185.19 199.973 184.571 199.639C183.965 199.293 183.322 199.082 182.642 199.008C181.961 198.921 181.306 198.878 180.675 198.878H175.758V205.168C175.758 205.725 175.776 206.306 175.813 206.912C175.851 207.506 175.956 208.069 176.129 208.601C176.302 209.133 176.58 209.59 176.964 209.974V210.215ZM211.431 210.234H190.112V209.992C190.483 209.597 190.755 209.133 190.928 208.601C191.101 208.069 191.206 207.506 191.244 206.912C191.293 206.319 191.318 205.743 191.318 205.187V188.821C191.318 188.252 191.293 187.671 191.244 187.077C191.206 186.484 191.101 185.921 190.928 185.389C190.755 184.857 190.483 184.399 190.112 184.016V183.775H210.967L211.672 190.269H211.338C210.868 188.809 210.114 187.659 209.075 186.818C208.036 185.964 206.928 185.364 205.753 185.018C204.578 184.659 203.589 184.48 202.785 184.48H199.352C198.968 185.086 198.733 185.779 198.647 186.558C198.573 187.337 198.536 188.092 198.536 188.821V196.633H203.453C204.083 196.633 204.739 196.596 205.419 196.522C206.1 196.435 206.743 196.225 207.349 195.891C207.968 195.544 208.499 194.994 208.945 194.239H209.223V199.769H208.945C208.499 199.014 207.968 198.464 207.349 198.117C206.743 197.771 206.1 197.561 205.419 197.487C204.739 197.4 204.083 197.357 203.453 197.357H198.536V205.187C198.536 205.917 198.573 206.671 198.647 207.45C198.733 208.217 198.968 208.904 199.352 209.51H203.267C204.059 209.51 205.042 209.337 206.217 208.99C207.392 208.632 208.499 208.013 209.538 207.135C210.578 206.257 211.338 205.044 211.821 203.498H212.155L211.431 210.234ZM215.079 210.53C214.324 210.159 213.749 209.64 213.353 208.972C212.97 208.304 212.778 207.562 212.778 206.745C212.778 206.164 212.883 205.62 213.094 205.113C213.316 204.593 213.681 204.179 214.188 203.869C214.708 203.548 215.407 203.387 216.285 203.387C217.114 203.387 217.949 203.579 218.79 203.962C219.631 204.333 220.46 204.803 221.276 205.372C222.093 205.929 222.872 206.498 223.614 207.079C224.43 207.723 225.179 208.273 225.859 208.731C226.54 209.176 227.127 209.399 227.622 209.399C227.956 209.399 228.203 209.306 228.364 209.12C228.537 208.922 228.624 208.675 228.624 208.378C228.624 207.945 228.383 207.438 227.9 206.857C227.43 206.275 226.799 205.632 226.008 204.927C225.216 204.222 224.332 203.467 223.354 202.663C222.204 201.723 221.035 200.727 219.847 199.676C218.66 198.612 217.553 197.505 216.526 196.355C215.512 195.204 214.683 194.029 214.04 192.829C213.409 191.617 213.094 190.392 213.094 189.155C213.094 187.943 213.397 186.935 214.003 186.131C214.621 185.327 215.401 184.727 216.341 184.331C217.293 183.935 218.283 183.738 219.309 183.738C220.101 183.738 220.831 183.787 221.499 183.886C222.179 183.973 222.829 184.078 223.447 184.201C223.991 184.3 224.523 184.387 225.043 184.461C225.562 184.535 226.082 184.572 226.601 184.572C227.195 184.572 227.776 184.486 228.346 184.313C228.915 184.14 229.385 183.886 229.756 183.552H229.848C230.121 183.7 230.436 183.935 230.795 184.257C231.153 184.579 231.469 184.993 231.741 185.5C232.026 185.995 232.168 186.595 232.168 187.3C232.168 188.228 231.803 189.013 231.073 189.656C230.343 190.3 229.354 190.621 228.104 190.621C227.35 190.621 226.608 190.43 225.878 190.046C225.16 189.65 224.468 189.162 223.8 188.58C223.132 187.999 222.501 187.411 221.907 186.818C221.251 186.174 220.645 185.624 220.089 185.166C219.544 184.709 219.056 184.48 218.623 184.48C218.289 184.48 218.023 184.572 217.825 184.758C217.627 184.944 217.528 185.203 217.528 185.537C217.528 185.995 217.769 186.533 218.252 187.152C218.747 187.758 219.396 188.426 220.2 189.155C221.016 189.885 221.926 190.671 222.928 191.512C224.066 192.452 225.216 193.454 226.379 194.518C227.554 195.569 228.642 196.664 229.644 197.802C230.646 198.94 231.457 200.103 232.075 201.29C232.693 202.465 233.003 203.653 233.003 204.853C233.003 205.768 232.7 206.64 232.094 207.469C231.487 208.285 230.708 208.96 229.756 209.491C228.803 210.011 227.82 210.271 226.805 210.271C226.014 210.271 225.204 210.221 224.375 210.122C223.558 210.023 222.754 209.918 221.963 209.807C220.243 209.559 219 209.436 218.233 209.436C217.627 209.436 217.04 209.535 216.471 209.733C215.914 209.918 215.45 210.184 215.079 210.53ZM250.455 210.215H240.844V209.974C241.215 209.59 241.487 209.133 241.66 208.601C241.834 208.057 241.939 207.488 241.976 206.894C242.025 206.3 242.05 205.725 242.05 205.168V184.48C241.172 184.48 240.145 184.665 238.97 185.036C237.795 185.395 236.7 186.001 235.686 186.855C234.671 187.696 233.935 188.828 233.478 190.25H233.144L233.867 183.756H257.432L258.155 190.25H257.821C257.364 188.828 256.628 187.696 255.613 186.855C254.599 186.001 253.504 185.395 252.329 185.036C251.154 184.665 250.134 184.48 249.268 184.48V205.168C249.268 205.725 249.286 206.3 249.323 206.894C249.361 207.488 249.466 208.057 249.639 208.601C249.812 209.133 250.084 209.59 250.455 209.974V210.215ZM267.926 210.215H258.296V209.974C258.668 209.578 258.94 209.114 259.113 208.582C259.286 208.05 259.391 207.488 259.428 206.894C259.478 206.3 259.503 205.725 259.503 205.168V188.803C259.503 188.234 259.478 187.653 259.428 187.059C259.391 186.465 259.286 185.902 259.113 185.37C258.94 184.838 258.668 184.381 258.296 183.997V183.756H267.926V183.997C267.543 184.381 267.265 184.838 267.091 185.37C266.918 185.902 266.813 186.465 266.776 187.059C266.739 187.653 266.72 188.234 266.72 188.803V205.168C266.72 205.725 266.739 206.3 266.776 206.894C266.813 207.488 266.918 208.05 267.091 208.582C267.265 209.114 267.543 209.578 267.926 209.974V210.215ZM282.54 210.234H279.534L272.187 190.621C271.791 189.632 271.203 188.45 270.424 187.077C269.645 185.704 268.97 184.684 268.401 184.016V183.775H278.811C278.811 183.886 278.798 184.01 278.773 184.146C278.749 184.282 278.736 184.449 278.736 184.647C278.736 185.389 278.879 186.372 279.163 187.597C279.448 188.809 279.72 189.799 279.979 190.566L284.581 203.684C285.385 201.272 285.991 199.156 286.399 197.338C286.82 195.52 287.098 193.943 287.234 192.607C287.37 191.258 287.438 190.083 287.438 189.081C287.438 188.29 287.327 187.399 287.104 186.409C286.882 185.407 286.566 184.647 286.158 184.127V183.923C286.418 183.836 286.888 183.744 287.568 183.645C288.249 183.533 288.972 183.478 289.739 183.478C292.226 183.478 293.469 184.684 293.469 187.096C293.469 188.382 293.221 189.675 292.727 190.974C292.244 192.26 291.613 193.565 290.834 194.889C290.055 196.212 289.207 197.567 288.292 198.952C287.129 200.709 286.022 202.521 284.971 204.389C283.932 206.257 283.121 208.205 282.54 210.234ZM314.632 210.234H304.186C304.186 210.122 304.198 209.999 304.223 209.863C304.26 209.726 304.279 209.553 304.279 209.343C304.279 208.588 304.124 207.593 303.815 206.356C303.518 205.106 303.233 204.104 302.961 203.35H294.983C294.933 203.931 294.909 204.519 294.909 205.113C294.909 206.795 295.342 208.285 296.207 209.584V209.788C295.935 209.875 295.459 209.974 294.779 210.085C294.098 210.184 293.369 210.234 292.589 210.234C290.103 210.234 288.86 209.028 288.86 206.615C288.86 205.465 289.101 204.308 289.583 203.146C290.078 201.971 290.703 200.795 291.457 199.62C292.224 198.445 293.028 197.276 293.87 196.113C294.661 195.013 295.403 193.924 296.096 192.848C296.801 191.772 297.376 190.714 297.822 189.675C298.267 188.636 298.49 187.628 298.49 186.651C298.465 185.438 298.162 184.523 297.58 183.904L297.636 183.663H303.277L310.81 203.35C311.206 204.352 311.8 205.539 312.591 206.912C313.383 208.285 314.063 209.312 314.632 209.992V210.234ZM302.702 202.626L298.36 190.306C297.432 192.928 296.69 195.217 296.133 197.171C295.589 199.113 295.224 200.932 295.038 202.626H302.702ZM336.093 210.53H336.074C335.171 209.665 334.095 209.232 332.846 209.232C332.054 209.232 330.706 209.324 328.801 209.51C327.044 209.671 324.978 209.838 322.603 210.011C320.241 210.172 317.761 210.252 315.163 210.252V210.011C315.534 209.627 315.806 209.17 315.979 208.638C316.152 208.094 316.258 207.525 316.295 206.931C316.344 206.337 316.369 205.762 316.369 205.205V188.84C316.369 188.283 316.344 187.708 316.295 187.114C316.258 186.521 316.152 185.958 315.979 185.426C315.806 184.894 315.534 184.43 315.163 184.034V183.793H324.793V184.034C324.409 184.43 324.131 184.894 323.958 185.426C323.785 185.958 323.679 186.521 323.642 187.114C323.605 187.708 323.587 188.283 323.587 188.84V209.028C323.797 208.953 324.341 208.638 325.22 208.081C326.048 207.549 327.032 206.956 328.17 206.3C329.308 205.644 330.477 205.063 331.677 204.556C332.876 204.049 333.94 203.795 334.868 203.795C335.672 203.795 336.334 203.95 336.853 204.259C337.373 204.556 337.756 204.946 338.004 205.428C338.251 205.91 338.375 206.43 338.375 206.987C338.375 207.753 338.183 208.446 337.8 209.065C337.416 209.683 336.847 210.172 336.093 210.53ZM397.267 210.234H387.637V209.992C388.021 209.609 388.299 209.151 388.472 208.619C388.646 208.087 388.751 207.525 388.788 206.931C388.825 206.337 388.844 205.756 388.844 205.187V188.71L381.756 210.234H378.379L371.291 188.71V205.187C371.291 205.756 371.309 206.337 371.346 206.931C371.384 207.525 371.489 208.087 371.662 208.619C371.835 209.151 372.107 209.609 372.478 209.992V210.234H369.361V209.992C369.732 209.609 370.004 209.151 370.178 208.619C370.351 208.087 370.456 207.525 370.493 206.931C370.542 206.337 370.567 205.756 370.567 205.187V188.821C370.567 188.265 370.542 187.69 370.493 187.096C370.456 186.502 370.351 185.939 370.178 185.407C370.004 184.876 369.732 184.412 369.361 184.016V183.775H376.876L383.407 203.016L389.753 183.775H397.267V184.016C396.884 184.412 396.606 184.876 396.432 185.407C396.272 185.939 396.166 186.502 396.117 187.096C396.08 187.69 396.061 188.265 396.061 188.821V205.187C396.061 205.756 396.08 206.337 396.117 206.931C396.166 207.525 396.272 208.087 396.432 208.619C396.606 209.151 396.884 209.609 397.267 209.992V210.234ZM409.97 210.475C407.731 210.475 405.851 210.079 404.329 209.287C402.82 208.483 401.676 207.184 400.897 205.391C400.13 203.585 399.746 201.173 399.746 198.154V188.821C399.746 188.252 399.728 187.671 399.691 187.077C399.654 186.484 399.548 185.921 399.375 185.389C399.202 184.857 398.93 184.399 398.559 184.016V183.775H408.17V184.016C407.799 184.399 407.527 184.857 407.354 185.389C407.181 185.921 407.069 186.484 407.02 187.077C406.983 187.671 406.964 188.246 406.964 188.803V197.004C406.964 199.317 407.106 201.222 407.391 202.719C407.675 204.216 408.077 205.391 408.597 206.244C409.129 207.085 409.772 207.679 410.527 208.026C411.281 208.36 412.122 208.527 413.05 208.527C413.99 208.527 414.85 208.347 415.629 207.988C416.421 207.63 417.101 207.024 417.67 206.17C418.252 205.304 418.697 204.129 419.006 202.645C419.328 201.148 419.488 199.268 419.488 197.004V188.821C419.488 188.252 419.464 187.671 419.414 187.077C419.377 186.484 419.272 185.921 419.099 185.389C418.926 184.857 418.654 184.399 418.282 184.016V183.775H421.4V184.016C421.029 184.399 420.756 184.863 420.583 185.407C420.41 185.939 420.305 186.502 420.268 187.096C420.231 187.69 420.212 188.265 420.212 188.821V197.821C420.212 200.752 419.822 203.152 419.043 205.02C418.276 206.888 417.132 208.267 415.611 209.157C414.101 210.036 412.221 210.475 409.97 210.475ZM424.212 210.53C423.458 210.159 422.883 209.64 422.487 208.972C422.103 208.304 421.912 207.562 421.912 206.745C421.912 206.164 422.017 205.62 422.227 205.113C422.45 204.593 422.815 204.179 423.322 203.869C423.841 203.548 424.54 203.387 425.419 203.387C426.247 203.387 427.082 203.579 427.923 203.962C428.765 204.333 429.593 204.803 430.41 205.372C431.226 205.929 432.005 206.498 432.748 207.079C433.564 207.723 434.312 208.273 434.993 208.731C435.673 209.176 436.261 209.399 436.755 209.399C437.089 209.399 437.337 209.306 437.498 209.12C437.671 208.922 437.757 208.675 437.757 208.378C437.757 207.945 437.516 207.438 437.034 206.857C436.564 206.275 435.933 205.632 435.141 204.927C434.35 204.222 433.465 203.467 432.488 202.663C431.337 201.723 430.169 200.727 428.981 199.676C427.794 198.612 426.686 197.505 425.66 196.355C424.645 195.204 423.817 194.029 423.173 192.829C422.543 191.617 422.227 190.392 422.227 189.155C422.227 187.943 422.53 186.935 423.136 186.131C423.755 185.327 424.534 184.727 425.474 184.331C426.427 183.935 427.416 183.738 428.443 183.738C429.235 183.738 429.964 183.787 430.632 183.886C431.313 183.973 431.962 184.078 432.581 184.201C433.125 184.3 433.657 184.387 434.176 184.461C434.696 184.535 435.215 184.572 435.735 184.572C436.329 184.572 436.91 184.486 437.479 184.313C438.048 184.14 438.518 183.886 438.889 183.552H438.982C439.254 183.7 439.57 183.935 439.928 184.257C440.287 184.579 440.602 184.993 440.875 185.5C441.159 185.995 441.301 186.595 441.301 187.3C441.301 188.228 440.936 189.013 440.207 189.656C439.477 190.3 438.487 190.621 437.238 190.621C436.483 190.621 435.741 190.43 435.011 190.046C434.294 189.65 433.601 189.162 432.933 188.58C432.265 187.999 431.634 187.411 431.041 186.818C430.385 186.174 429.779 185.624 429.222 185.166C428.678 184.709 428.189 184.48 427.756 184.48C427.422 184.48 427.157 184.572 426.959 184.758C426.761 184.944 426.662 185.203 426.662 185.537C426.662 185.995 426.903 186.533 427.385 187.152C427.88 187.758 428.53 188.426 429.334 189.155C430.15 189.885 431.059 190.671 432.061 191.512C433.199 192.452 434.35 193.454 435.512 194.518C436.687 195.569 437.776 196.664 438.778 197.802C439.78 198.94 440.59 200.103 441.209 201.29C441.827 202.465 442.136 203.653 442.136 204.853C442.136 205.768 441.833 206.64 441.227 207.469C440.621 208.285 439.842 208.96 438.889 209.491C437.937 210.011 436.953 210.271 435.939 210.271C435.147 210.271 434.337 210.221 433.508 210.122C432.692 210.023 431.888 209.918 431.096 209.807C429.377 209.559 428.134 209.436 427.367 209.436C426.761 209.436 426.173 209.535 425.604 209.733C425.047 209.918 424.584 210.184 424.212 210.53ZM452.464 210.215H442.834V209.974C443.205 209.578 443.477 209.114 443.65 208.582C443.824 208.05 443.929 207.488 443.966 206.894C444.015 206.3 444.04 205.725 444.04 205.168V188.803C444.04 188.234 444.015 187.653 443.966 187.059C443.929 186.465 443.824 185.902 443.65 185.37C443.477 184.838 443.205 184.381 442.834 183.997V183.756H452.464V183.997C452.08 184.381 451.802 184.838 451.629 185.37C451.456 185.902 451.351 186.465 451.313 187.059C451.276 187.653 451.258 188.234 451.258 188.803V205.168C451.258 205.725 451.276 206.3 451.313 206.894C451.351 207.488 451.456 208.05 451.629 208.582C451.802 209.114 452.08 209.578 452.464 209.974V210.215ZM475.724 216.412C475.081 216.412 474.45 216.264 473.831 215.967C473.213 215.67 472.601 215.293 471.995 214.835C471.388 214.377 470.788 213.895 470.195 213.388C469.613 212.893 469.032 212.423 468.451 211.978C467.882 211.545 467.306 211.186 466.725 210.902C466.156 210.629 465.587 210.493 465.018 210.493C462.556 210.469 460.423 209.955 458.617 208.953C456.823 207.951 455.431 206.461 454.442 204.482C453.452 202.49 452.957 200.004 452.957 197.023C452.957 194.004 453.458 191.5 454.46 189.508C455.475 187.516 456.897 186.026 458.728 185.036C460.571 184.047 462.736 183.552 465.222 183.552C467.708 183.552 469.867 184.047 471.698 185.036C473.541 186.026 474.963 187.516 475.965 189.508C476.98 191.5 477.487 194.004 477.487 197.023C477.487 199.583 477.122 201.773 476.392 203.591C475.662 205.409 474.617 206.869 473.256 207.97C471.908 209.071 470.3 209.813 468.432 210.196L469.36 210.382C470.015 210.53 470.665 210.66 471.308 210.772C471.964 210.895 472.613 210.957 473.256 210.957C474.135 210.957 474.796 210.871 475.242 210.697C475.699 210.537 476.095 210.289 476.429 209.955C477.951 210.71 478.718 211.891 478.73 213.499C478.73 214.316 478.489 215.002 478.006 215.559C477.524 216.128 476.763 216.412 475.724 216.412ZM465.222 209.77C466.212 209.77 467.059 209.355 467.764 208.527C468.482 207.685 469.032 206.331 469.415 204.463C469.799 202.583 469.991 200.103 469.991 197.023C469.991 193.93 469.799 191.45 469.415 189.582C469.032 187.714 468.482 186.366 467.764 185.537C467.059 184.696 466.212 184.276 465.222 184.276C464.232 184.276 463.379 184.696 462.662 185.537C461.956 186.366 461.412 187.714 461.029 189.582C460.645 191.45 460.454 193.93 460.454 197.023C460.454 200.115 460.645 202.595 461.029 204.463C461.412 206.331 461.956 207.685 462.662 208.527C463.379 209.355 464.232 209.77 465.222 209.77ZM489.206 210.475C486.967 210.475 485.087 210.079 483.565 209.287C482.056 208.483 480.912 207.184 480.133 205.391C479.366 203.585 478.982 201.173 478.982 198.154V188.821C478.982 188.252 478.964 187.671 478.927 187.077C478.889 186.484 478.784 185.921 478.611 185.389C478.438 184.857 478.166 184.399 477.795 184.016V183.775H487.406V184.016C487.035 184.399 486.763 184.857 486.59 185.389C486.416 185.921 486.305 186.484 486.256 187.077C486.219 187.671 486.2 188.246 486.2 188.803V197.004C486.2 199.317 486.342 201.222 486.627 202.719C486.911 204.216 487.313 205.391 487.833 206.244C488.365 207.085 489.008 207.679 489.763 208.026C490.517 208.36 491.358 208.527 492.286 208.527C493.226 208.527 494.086 208.347 494.865 207.988C495.657 207.63 496.337 207.024 496.906 206.17C497.487 205.304 497.933 204.129 498.242 202.645C498.564 201.148 498.724 199.268 498.724 197.004V188.821C498.724 188.252 498.7 187.671 498.65 187.077C498.613 186.484 498.508 185.921 498.335 185.389C498.162 184.857 497.889 184.399 497.518 184.016V183.775H500.636V184.016C500.264 184.399 499.992 184.863 499.819 185.407C499.646 185.939 499.541 186.502 499.504 187.096C499.467 187.69 499.448 188.265 499.448 188.821V197.821C499.448 200.752 499.058 203.152 498.279 205.02C497.512 206.888 496.368 208.267 494.846 209.157C493.337 210.036 491.457 210.475 489.206 210.475ZM522.875 210.234H501.556V209.992C501.927 209.597 502.199 209.133 502.372 208.601C502.545 208.069 502.651 207.506 502.688 206.912C502.737 206.319 502.762 205.743 502.762 205.187V188.821C502.762 188.252 502.737 187.671 502.688 187.077C502.651 186.484 502.545 185.921 502.372 185.389C502.199 184.857 501.927 184.399 501.556 184.016V183.775H522.411L523.116 190.269H522.782C522.312 188.809 521.558 187.659 520.519 186.818C519.48 185.964 518.373 185.364 517.197 185.018C516.022 184.659 515.033 184.48 514.229 184.48H510.796C510.413 185.086 510.178 185.779 510.091 186.558C510.017 187.337 509.98 188.092 509.98 188.821V196.633H514.897C515.528 196.633 516.183 196.596 516.863 196.522C517.544 196.435 518.187 196.225 518.793 195.891C519.412 195.544 519.944 194.994 520.389 194.239H520.667V199.769H520.389C519.944 199.014 519.412 198.464 518.793 198.117C518.187 197.771 517.544 197.561 516.863 197.487C516.183 197.4 515.528 197.357 514.897 197.357H509.98V205.187C509.98 205.917 510.017 206.671 510.091 207.45C510.178 208.217 510.413 208.904 510.796 209.51H514.711C515.503 209.51 516.486 209.337 517.661 208.99C518.836 208.632 519.944 208.013 520.983 207.135C522.022 206.257 522.782 205.044 523.265 203.498H523.599L522.875 210.234ZM541.1 205.465H540.376V197.654H531.6V196.93H540.376V189.1H541.1V196.93H549.895V197.654H541.1V205.465ZM583.222 210.234H572.776C572.776 210.122 572.789 209.999 572.813 209.863C572.85 209.726 572.869 209.553 572.869 209.343C572.869 208.588 572.714 207.593 572.405 206.356C572.108 205.106 571.824 204.104 571.552 203.35H563.573C563.524 203.931 563.499 204.519 563.499 205.113C563.499 206.795 563.932 208.285 564.798 209.584V209.788C564.526 209.875 564.049 209.974 563.369 210.085C562.689 210.184 561.959 210.234 561.18 210.234C558.693 210.234 557.45 209.028 557.45 206.615C557.45 205.465 557.691 204.308 558.174 203.146C558.668 201.971 559.293 200.795 560.048 199.62C560.815 198.445 561.619 197.276 562.46 196.113C563.251 195.013 563.994 193.924 564.686 192.848C565.391 191.772 565.967 190.714 566.412 189.675C566.857 188.636 567.08 187.628 567.08 186.651C567.055 185.438 566.752 184.523 566.171 183.904L566.226 183.663H571.867L579.4 203.35C579.796 204.352 580.39 205.539 581.181 206.912C581.973 208.285 582.653 209.312 583.222 209.992V210.234ZM571.292 202.626L566.95 190.306C566.022 192.928 565.28 195.217 564.723 197.171C564.179 199.113 563.814 200.932 563.629 202.626H571.292ZM602.697 210.716C601.832 210.716 601.021 210.574 600.267 210.289C599.525 210.017 598.918 209.529 598.448 208.823C597.991 208.106 597.762 207.092 597.762 205.78C597.762 204.469 597.638 203.201 597.391 201.977C597.156 200.74 596.785 199.725 596.278 198.934C595.783 198.142 595.152 197.746 594.385 197.746C593.828 197.746 593.334 197.913 592.901 198.247C592.468 198.569 592.127 198.959 591.88 199.416C591.645 199.862 591.528 200.264 591.528 200.622V205.168C591.528 205.725 591.546 206.306 591.583 206.912C591.62 207.506 591.725 208.069 591.899 208.601C592.072 209.133 592.35 209.59 592.734 209.974V210.215H583.104V209.974C583.475 209.59 583.747 209.133 583.92 208.601C584.093 208.069 584.198 207.506 584.236 206.912C584.285 206.306 584.31 205.725 584.31 205.168V188.803C584.31 188.246 584.285 187.671 584.236 187.077C584.198 186.484 584.093 185.921 583.92 185.389C583.747 184.857 583.475 184.393 583.104 183.997V183.756H595.109C598.152 183.756 600.508 184.177 602.178 185.018C604.07 185.983 605.017 187.541 605.017 189.694C605.017 190.757 604.813 191.648 604.404 192.365C603.996 193.083 603.452 193.689 602.772 194.184C602.104 194.666 601.349 195.074 600.508 195.408C599.667 195.742 598.807 196.033 597.929 196.28C600.106 196.553 601.838 197.487 603.124 199.082C604.423 200.678 605.072 202.54 605.072 204.667C605.072 205.335 605.091 205.991 605.128 206.634C605.178 207.265 605.289 207.809 605.462 208.267C605.648 208.712 605.945 208.99 606.353 209.102V209.399C605.982 209.856 605.45 210.19 604.757 210.401C604.064 210.611 603.378 210.716 602.697 210.716ZM591.528 198.507C592.059 197.827 592.727 197.165 593.531 196.522C594.187 195.99 594.83 195.39 595.461 194.722C596.104 194.042 596.636 193.231 597.057 192.291C597.49 191.339 597.706 190.17 597.706 188.784C597.706 187.238 597.329 186.137 596.574 185.482C595.82 184.814 594.7 184.48 593.216 184.48H591.528V198.507ZM623.62 210.215H614.008V209.974C614.379 209.59 614.652 209.133 614.825 208.601C614.998 208.057 615.103 207.488 615.14 206.894C615.19 206.3 615.214 205.725 615.214 205.168V184.48C614.336 184.48 613.309 184.665 612.134 185.036C610.959 185.395 609.865 186.001 608.85 186.855C607.836 187.696 607.1 188.828 606.642 190.25H606.308L607.032 183.756H630.596L631.32 190.25H630.986C630.528 188.828 629.792 187.696 628.778 186.855C627.764 186.001 626.669 185.395 625.494 185.036C624.319 184.665 623.298 184.48 622.432 184.48V205.168C622.432 205.725 622.451 206.3 622.488 206.894C622.525 207.488 622.63 208.057 622.803 208.601C622.976 209.133 623.249 209.59 623.62 209.974V210.215ZM633.762 210.53C633.007 210.159 632.432 209.64 632.036 208.972C631.653 208.304 631.461 207.562 631.461 206.745C631.461 206.164 631.566 205.62 631.776 205.113C631.999 204.593 632.364 204.179 632.871 203.869C633.391 203.548 634.09 203.387 634.968 203.387C635.797 203.387 636.632 203.579 637.473 203.962C638.314 204.333 639.143 204.803 639.959 205.372C640.775 205.929 641.555 206.498 642.297 207.079C643.113 207.723 643.862 208.273 644.542 208.731C645.222 209.176 645.81 209.399 646.305 209.399C646.639 209.399 646.886 209.306 647.047 209.12C647.22 208.922 647.307 208.675 647.307 208.378C647.307 207.945 647.065 207.438 646.583 206.857C646.113 206.275 645.482 205.632 644.69 204.927C643.899 204.222 643.014 203.467 642.037 202.663C640.887 201.723 639.718 200.727 638.53 199.676C637.343 198.612 636.236 197.505 635.209 196.355C634.195 195.204 633.366 194.029 632.723 192.829C632.092 191.617 631.776 190.392 631.776 189.155C631.776 187.943 632.079 186.935 632.686 186.131C633.304 185.327 634.083 184.727 635.023 184.331C635.976 183.935 636.965 183.738 637.992 183.738C638.784 183.738 639.514 183.787 640.182 183.886C640.862 183.973 641.511 184.078 642.13 184.201C642.674 184.3 643.206 184.387 643.726 184.461C644.245 184.535 644.765 184.572 645.284 184.572C645.878 184.572 646.459 184.486 647.028 184.313C647.597 184.14 648.067 183.886 648.438 183.552H648.531C648.803 183.7 649.119 183.935 649.478 184.257C649.836 184.579 650.152 184.993 650.424 185.5C650.708 185.995 650.851 186.595 650.851 187.3C650.851 188.228 650.486 189.013 649.756 189.656C649.026 190.3 648.036 190.621 646.787 190.621C646.033 190.621 645.29 190.43 644.561 190.046C643.843 189.65 643.15 189.162 642.482 188.58C641.814 187.999 641.184 187.411 640.59 186.818C639.934 186.174 639.328 185.624 638.771 185.166C638.227 184.709 637.739 184.48 637.306 184.48C636.972 184.48 636.706 184.572 636.508 184.758C636.31 184.944 636.211 185.203 636.211 185.537C636.211 185.995 636.452 186.533 636.935 187.152C637.429 187.758 638.079 188.426 638.883 189.155C639.699 189.885 640.608 190.671 641.61 191.512C642.748 192.452 643.899 193.454 645.062 194.518C646.237 195.569 647.325 196.664 648.327 197.802C649.329 198.94 650.139 200.103 650.758 201.29C651.376 202.465 651.686 203.653 651.686 204.853C651.686 205.768 651.382 206.64 650.776 207.469C650.17 208.285 649.391 208.96 648.438 209.491C647.486 210.011 646.503 210.271 645.488 210.271C644.697 210.271 643.886 210.221 643.058 210.122C642.241 210.023 641.437 209.918 640.646 209.807C638.926 209.559 637.683 209.436 636.916 209.436C636.31 209.436 635.722 209.535 635.153 209.733C634.597 209.918 634.133 210.184 633.762 210.53Z" fill="#E4DDC6"/>
<path d="M351.705 201.766C350.682 201.766 349.81 201.418 349.087 200.723C348.365 200.014 348.004 199.169 348.004 198.188C348.004 197.193 348.365 196.348 349.087 195.652C349.81 194.944 350.682 194.589 351.705 194.589C352.741 194.589 353.62 194.944 354.342 195.652C355.065 196.348 355.426 197.193 355.426 198.188C355.426 199.169 355.065 200.014 354.342 200.723C353.62 201.418 352.741 201.766 351.705 201.766Z" fill="#E4DDC6"/>
</svg>
